<svg id="Layer_1" xmlns="http://www.w3.org/2000/svg" viewBox="0 0 654.4 123.6">
  <style>
    .st0{fill:#FFFFFF;}
  </style>
  <path class="st0" d="M37.8 37.9c-1.2-1.5-2.8-2.6-4.8-3.3s-3.9-1.1-5.7-1.1c-1.1 0-2.1.1-3.2.4-1.1.2-2.2.6-3.2 1.2-1 .5-1.8 1.2-2.4 2.1-.6.9-.9 1.9-.9 3.2 0 2 .7 3.5 2.2 4.5 1.5 1.1 3.4 1.9 5.6 2.7 2.3.7 4.7 1.5 7.3 2.2s5 1.8 7.3 3.2 4.1 3.2 5.6 5.5 2.2 5.3 2.2 9.2c0 3.6-.7 6.8-2 9.6-1.4 2.7-3.2 5-5.5 6.8s-5 3.1-8.1 4-6.3 1.3-9.7 1.3c-4.3 0-8.2-.6-11.9-1.9-3.6-1.3-7-3.4-10.2-6.3l10.3-11.3c1.5 2 3.4 3.5 5.6 4.6 2.3 1.1 4.6 1.6 7 1.6 1.2 0 2.4-.1 3.6-.4 1.2-.3 2.3-.7 3.2-1.3 1-.6 1.7-1.3 2.3-2.1.6-.9.9-1.9.9-3.1 0-2-.8-3.5-2.3-4.7-1.5-1.1-3.4-2.1-5.7-2.9-2.3-.8-4.8-1.6-7.4-2.4-2.7-.8-5.1-1.9-7.4-3.2-2.3-1.4-4.2-3.2-5.7-5.4s-2.3-5.2-2.3-8.8c0-3.5.7-6.6 2.1-9.3 1.4-2.7 3.2-4.9 5.6-6.7 2.3-1.8 5-3.1 8-4s6.2-1.3 9.4-1.3c3.7 0 7.3.5 10.8 1.6s6.6 2.8 9.4 5.3l-10 10.5zm37.3-16h24.4c3.4 0 6.6.3 9.6.9 3 .6 5.7 1.7 7.9 3.2 2.3 1.5 4 3.6 5.4 6.1 1.3 2.6 2 5.8 2 9.7 0 3.8-.6 7-1.9 9.6-1.2 2.6-2.9 4.7-5.1 6.2s-4.7 2.6-7.7 3.3c-3 .6-6.2 1-9.6 1H89.5v25.6H75V21.9h.1zm14.5 27.8h9.6c1.3 0 2.5-.1 3.8-.4 1.2-.2 2.3-.7 3.2-1.3 1-.6 1.7-1.4 2.3-2.4s.9-2.3.9-3.8c0-1.7-.4-3-1.2-4s-1.8-1.8-3-2.4-2.5-.9-4-1.1c-1.5-.2-2.9-.2-4.3-.2h-7.4l.1 15.6zm73.1-27.8h12l28.6 65.7H187l-5.7-13.9h-25.5l-5.5 13.9h-15.9l28.3-65.7zm5.5 19.1l-8 20.4h16l-8-20.4zm57.2-19.1h25.4c3.3 0 6.5.3 9.5 1 3 .6 5.6 1.7 7.9 3.2s4 3.6 5.4 6.1c1.3 2.6 2 5.8 2 9.6 0 4.6-1.2 8.6-3.6 11.8s-5.9 5.3-10.6 6.2l16.7 27.7h-17.3l-13.7-26.2H240v26.2h-14.6V21.9zm14.5 27.2h8.5c1.3 0 2.7 0 4.1-.1 1.5-.1 2.8-.4 3.9-.8 1.2-.5 2.1-1.2 2.9-2.2s1.2-2.4 1.2-4.2c0-1.7-.3-3-1-4s-1.5-1.7-2.6-2.3c-1.1-.5-2.3-.9-3.6-1.1-1.4-.2-2.7-.3-4-.3h-9.5v15h.1zM364 87.5h-20.2l-22.7-26.4v26.4h-14.4V21.9h14.4v22.9l21.5-22.9h18.9l-29.2 30.5m95.5-26.8v7.3h-29.5v18.2h27.1v7.3h-27.1v18.2h31.1v7.3h-38.9V25.6h37.3m3.7-3.7h-44.6v65.7h46.3V72.8h-31.1V62.1h27.1V47.4h-27.1V36.6h29.5V21.9h-.1zm59.8 3.7l25.3 58.2h-8.9l-5.2-12h-29.8l-5.1 12h-8.5l25.2-58.2h7m-15.6 39.5h23.9l-12-27.7-11.9 27.7m18.1-43.2h-12l-28.4 65.6H470l5.1-12H500l5.2 12h17l-28.4-65.6zm-12.5 39.5l6.3-14.6 6.3 14.6h-12.6zm101.4-35.8v6.7h-18.1v51.5h-7.7V32.3h-18.7v-6.7h44.5m3.7-3.7h-51.9V36h18.7v51.5h15.1V36h18.1V21.9zm47.1 1.8c3.7 0 6.9.4 9.9 1.3 1.9.6 3.7 1.5 5.5 2.7l-5.3 5.8c-1-.7-2.1-1.3-3.6-1.8-2.6-.9-4.9-1-6.7-1-1.3 0-2.9.2-4.2.5l-.3.1c-1 .2-2.1.5-3.4 1.1-1.4.7-2.6 1.8-3.5 3-1 1.4-1.5 3-1.5 4.9 0 3 1.2 5.4 3.5 7 1.7 1.2 3.9 2.3 6.4 3.1 2.3.7 4.8 1.5 7.4 2.3 2.3.7 4.5 1.6 6.5 2.8 1.8 1.1 3.4 2.6 4.6 4.5 1.2 1.8 1.7 4.3 1.7 7.5s-.6 5.9-1.7 8.2c-1.1 2.3-2.7 4.2-4.7 5.7-1.7 1.4-3.6 2.2-6.7 3.1-2.6.7-5.8 1.1-9.2 1.1-4 0-7.7-.6-10.9-1.7-2.6-.9-4.8-2-6.7-3.4l6-6.6c1.2 1 2.5 1.9 4.2 2.7 3 1.4 6 1.6 8.3 1.6 1.7 0 3.1-.1 4.3-.4h.1c1.2-.3 2.4-.6 3.8-1.3l.2-.1c1-.6 2.2-1.3 3.2-2.7.9-1.4 1.4-3 1.4-4.8 0-2.9-1.2-5.4-3.5-7.1-1.8-1.3-4-2.5-6.5-3.4-2.3-.8-4.9-1.6-7.5-2.5-2.4-.7-4.7-1.7-6.7-2.9-1.9-1.1-3.5-2.6-4.7-4.5-1.2-1.7-1.7-4.1-1.7-7.1s.6-5.7 1.7-7.9c1.2-2.3 2.8-4.2 4.7-5.7 1.9-1.4 4.1-2.3 7-3.1 2.5-.6 5.4-1 8.6-1m0-3.7c-3.3 0-6.5.4-9.6 1.3s-5.8 1.9-8.2 3.8c-2.4 1.8-4.3 4.2-5.7 6.9s-2.2 6-2.2 9.6c0 3.8.8 6.9 2.4 9.2 1.6 2.3 3.6 4.2 5.9 5.6 2.3 1.4 4.9 2.5 7.6 3.3 2.6.8 5.1 1.6 7.4 2.4 2.2.8 4.1 1.7 5.5 2.8 1.3 1 2 2.4 2 4.1 0 1-.3 1.9-.8 2.7-.5.8-1.3 1.2-2.2 1.7s-1.8.7-2.9 1c-1.2.3-2.4.3-3.5.3-2.3 0-4.5-.2-6.7-1.3-2.1-1-3.6-2.3-5.3-3.9l-.8-.7-11 12.2.5.5c3.2 3 6.6 4.7 10.4 6.1 3.7 1.3 7.8 1.9 12.1 1.9 3.4 0 7.1-.4 10.2-1.3 3.1-.9 5.6-1.9 8-3.7 2.4-1.8 4.3-4.2 5.7-7s2.1-6.1 2.1-9.9c0-3.9-.8-7.2-2.3-9.5-1.5-2.4-3.5-4.3-5.8-5.7s-4.8-2.5-7.4-3.2c-2.6-.7-5-1.5-7.3-2.2-2.2-.7-4-1.6-5.4-2.6-1.3-.9-1.9-2.2-1.9-4 0-1.1.3-2 .8-2.8.6-.8 1.3-1.4 2.2-1.9s1.7-.6 2.7-.9c1.1-.2 2.4-.4 3.4-.4 1.7 0 3.5.1 5.4.8s2.9 1.5 4.4 2.7l.9.7 10.2-11.2-.5-.5c-2.8-2.5-5.7-4.3-9.3-5.4-3.5-1-7.2-1.5-11-1.5z"/>
</svg>
