<svg xmlns="http://www.w3.org/2000/svg" viewBox="0 0 8400 800" width="840" height="80">
  <path fill="#7EBFCD" d="M3532 341c0-17-3-33-6-50-1-7-3-13-4-21-4-26-18-71-29-91-27-48-51-63-101-88-5-3-10-5-16-8-29-16-58-32-133-27-33 2-52 12-74 22l-2 1c-19 9-54 29-61 33-47 27-60 47-83 96-16 34-16 69-16 107v10c0 45 0 88 21 127 6 11 11 18 15 25l6 9c6 10 13 20 23 30l195 257 217-286c12-13 23-30 36-66 12-32 12-47 12-80zm-394 216c7 3 15 6 22 9l25 10c30 13 56 19 82 19 54 0 81-9 121-30 1-1 2-1 4-2l-124 164-130-170zm357-147c-17 44-52 81-54 83-15 15-40 35-66 48-39 20-61 27-108 27-23 0-45-5-71-17-5-2-15-6-26-10-16-6-37-14-44-18-14-7-24-15-33-24l-21-28c-2-3-4-7-7-10-4-6-9-12-14-22-17-33-17-72-17-114v-10c0-34 0-67 13-95 21-44 30-60 72-84 7-4 41-23 59-32l2-1c22-10 37-18 64-20 9-1 17-1 24-1 50 0 72 12 95 25 5 3 11 6 17 9 47 23 66 36 90 77 10 17 22 59 26 82 1 7 3 15 4 21 3 16 6 30 6 45-1 31-1 44-11 69z"/>
  <path fill="#7EBFCD" d="M3321 242c-15-9-49-19-75-14-32 7-47 21-65 47-11 16-13 29-13 49s6 39 17 55c17 26 40 40 72 46 3 1 6 1 9 1 21 0 44-11 59-22 23-17 37-33 40-66 3-30-6-74-44-96zm17 93c-2 24-11 33-29 47-13 10-34 19-47 17-25-5-41-15-55-35-8-12-12-26-12-40 0-16 1-23 9-34 14-21 24-31 48-36 3-1 6-1 9-1 16 0 37 6 46 12 27 16 34 48 31 70zm-48-167c3 0 7-1 9-4l28-26c5-5 6-14 1-19s-14-6-19-1l-28 26c-5 5-6 14-1 19 3 4 6 5 10 5zm-120 15l43 15c1 0 3 1 4 1 6 0 11-4 13-9 2-7-1-15-8-17l-43-15c-7-2-15 1-17 8s1 15 8 17zm-76 93l42-21c7-3 9-12 6-18-3-7-12-9-18-6l-42 21c-7 3-9 12-6 18 2 5 7 7 12 7 2 1 4 0 6-1zm43 109l-36-25c-6-4-15-3-19 3s-3 15 3 19l36 25c2 2 5 2 8 2 4 0 9-2 11-6 5-6 3-14-3-18zm56 79l-31 28c-6 5-6 14-1 19 3 3 6 4 10 4 3 0 7-1 9-4l31-28c6-5 6-14 1-19s-13-6-19 0zm112-20c-4-6-13-8-19-3-6 4-8 13-3 19l24 35c3 4 7 6 11 6 3 0 5-1 8-2 6-4 8-13 3-19l-24-36zm119-34c-8 0-14 6-14 14l1 43c0 7 6 13 14 13 7 0 13-6 13-14l-1-43c1-7-5-13-13-13zm-7-184c3-7 0-15-7-18l-47-20c-7-3-15 0-18 7s0 15 7 18l47 20c2 1 3 1 5 1 6 1 11-2 13-8zm46 47c-6-4-14-3-19 3l-31 40c-4 6-3 14 3 19 2 2 5 3 8 3 4 0 8-2 11-5l31-40c5-7 3-16-3-20zM1631 412c9-28 14-57 14-86v-2c-1-113-71-210-170-250-1 0-2-1-3-1-23-9-48-15-74-17h-1c-7-1-15-1-22-1-29 0-58 5-84 13-1 0-2 1-3 1-106 36-183 137-183 255v2c0 59 18 114 53 162l217 286 91-119h147c51 0 92-41 92-92v-60c-1-45-33-82-74-91zm-500-87c7-10 60-29 165-36-2 10-7 18-15 26-5 5-5 14 0 19 3 3 6 4 10 4 3 0 7-1 10-4 13-13 22-29 24-47 16-1 33-1 50-1h12c-2 10-7 20-16 28-5 5-5 14 0 19 3 3 6 4 10 4 3 0 7-1 10-4 14-14 22-30 24-47 23 1 43 2 62 4-3 9-7 17-15 24-5 5-5 14 0 19 3 3 6 4 10 4s7-1 10-4c12-12 20-26 23-41 72 9 109 23 115 31-8 12-86 38-243 38-161 2-238-24-246-36zm169-231c20-7 42-10 64-11-32 38-44 93-8 130 13 13 25 30 30 48h-11c-3 0-23 0-51 1-4-24-18-48-38-68-31-31-8-76 14-100zm146-1c-25 37-34 85 0 119 16 16 27 35 30 53-23-2-45-3-63-4-4-23-17-46-38-68-30-31-5-78 18-102l8-7c15 1 30 4 45 9zm169 199c-27-13-70-21-111-25 0-2 0-4-1-6-4-24-18-48-38-69-27-27-10-67 7-90 76 34 132 105 143 190zm-361-178c-4 8-6 15-8 23-7 29 0 55 20 75 16 16 26 34 30 51-55 4-124 12-163 30 10-77 56-143 121-179zm-76 357c-25-34-41-73-46-114 68 33 233 33 242 33s174 0 242-33c-5 41-21 80-46 114l-196 258-196-258zm499 91c0 36-29 65-65 65h-127l106-140c12-16 21-32 29-49 32 4 57 32 57 65v59zm2760-181c3-17 5-35 5-53 0-149-121-271-271-271-149 0-271 121-271 271 0 59 18 114 53 162l217 286 64-84h186c46 0 84-38 84-84V463c0-40-29-74-67-82zm-242-23v124c0 9-7 16-16 16s-16-7-16-16V358c0-24-19-43-43-43h-17c-24 0-43 19-43 43v28c0 9-7 16-16 16s-16-7-16-16v-28c0-24-19-43-43-43h-56c1-11 2-21 4-32 40-12 82-7 101 11 3 2 6 4 9 4h2c4 0 7-3 10-6 14-20 28-32 43-34 12-2 26 2 41 12 3 2 7 3 11 2s7-3 9-7c10-19 36-30 63-28 28 2 50 17 58 41 1 4 5 7 9 8s9 1 12-2c44-32 90-28 106-22 5 17 8 35 9 54h-176c-26-1-45 18-45 42zm-24-273c100 0 186 60 223 146-25-3-61 0-98 22-15-25-42-41-75-43s-64 10-81 31c-17-9-33-12-49-9-19 3-36 15-52 35-25-15-63-19-100-11 32-100 124-171 232-171zm-195 389c-29-39-45-84-48-132h56c9 0 16 7 16 16v28c0 24 19 43 43 43s43-19 43-43v-28c0-9 7-16 16-16h17c9 0 16 7 16 16v124c0 24 19 43 43 43s43-19 43-43V358c0-9 7-16 16-16h176c-3 48-19 93-48 132l-196 258-193-258zm434 10v103c0 6-5 10-10 10h-92l81-107c4-5 7-11 11-16 5 0 10 5 10 10zm67 124c0 31-26 57-57 57h-164l31-41h113c21 0 37-17 37-37V484c0-16-10-29-23-35 7-14 13-28 17-42 27 5 47 28 47 56v145z"/>
  <g fill="#7EBFCD">
    <path d="M5406 325c0-149-121-271-271-271-149 0-271 121-271 271 0 59 18 114 53 162l217 286 217-286c37-48 55-104 55-162zM5135 81c129 0 235 101 243 228-16-5-29-18-33-36-5-20-12-39-23-56-39-67-110-108-187-108s-149 41-187 108c-10 18-18 37-23 57-4 18-17 31-33 36 8-128 114-229 243-229zm-148 451l-29-38c1-20 17-35 37-35s37 17 37 37-17 37-37 37c-3 0-5 0-8-1zm187 99c0-20 17-37 37-37 7 0 15 2 21 6l-45 59c-8-7-13-17-13-28zm157-161l-83 109c-11-8-24-12-37-12-35 0-64 29-64 64 0 20 9 38 24 50l-36 47-128-169c30-6 52-32 52-63 0-35-29-64-64-64-25 0-47 15-57 36-28-38-44-83-46-130 29-5 52-27 60-57 4-17 11-34 20-49 34-58 96-94 164-94 67 0 130 36 164 94 9 15 16 32 20 49 7 30 31 52 60 57-4 47-20 93-49 132z"/>
    <path d="M5084 210c-35 0-64 29-64 64s29 64 64 64 64-29 64-64-29-64-64-64zm0 101c-20 0-37-17-37-37s17-37 37-37 37 17 37 37c0 21-17 37-37 37zm156 26c-35 0-64 29-64 64s29 64 64 64 64-29 64-64c0-36-29-64-64-64zm0 101c-20 0-37-17-37-37s17-37 37-37 37 17 37 37-17 37-37 37z"/>
  </g>
  <g fill="#7EBFCD">
    <path d="M6312 208v-1c-42-85-123-141-215-150h-2c-3 0-7-1-10-1h-32c-4 0-7 0-11 1h-1c-93 9-174 65-215 150v1c-17 36-27 75-27 118 0 59 18 114 53 162l217 286 217-286c35-47 53-103 53-161 0-43-10-83-27-119zm-487 118c0-23 3-45 9-66 9 9 20 14 33 14h1c-6 9-10 20-10 32s4 23 10 32h-13c-11 0-21 4-29 10-1-8-1-15-1-22zm206-241c4-1 8-1 12-2h2c3 0 6-1 9-1h30c3 0 6 0 9 1h1c86 9 158 62 194 137 2 6 2 12-1 17-4 6-10 9-16 9h-403c-7 0-13-3-16-9-3-5-4-11-1-17 32-71 100-123 180-135zm211 243c-6 6-14 9-23 9h-91l95-64c16 2 28 15 28 32 1 9-3 17-9 23zm-325-55h88l41 64h-129c-18 0-32-14-32-32 0-17 14-32 32-32zm167 62c-3 2-7 1-9-2l-38-60h139l-92 62zm-249 49c0-11 9-20 20-20h428c11 0 20 9 20 20 0 36-29 66-66 66h-337c-36 0-65-30-65-66zm447-47h-13c6-9 10-21 10-32 0-12-4-23-10-32h1c13 0 24-5 33-14 6 21 9 43 9 66 0 7 0 15-1 22-8-6-18-10-29-10zm-408 136c8 2 17 4 26 4h336c9 0 18-1 26-4l-194 256-194-256z"/>
    <path d="M6033 122l20 9c2 1 4 1 6 1 5 0 10-3 12-8 3-7 0-15-7-18l-20-9c-7-3-15 0-18 7s0 15 7 18zm72 23c2 2 5 2 8 2 4 0 8-2 11-6l10-15c4-6 3-15-3-19s-15-3-19 3l-10 15c-4 8-3 16 3 20zm-151 24c3 0 6-1 9-3l16-15c6-5 6-14 1-19-5-6-14-6-19-1l-16 15c-6 5-6 14-1 19 2 3 6 4 10 4zm211-3l23 5h3c6 0 12-4 13-11 2-7-3-14-10-16l-23-5c-7-2-14 3-16 10-2 8 3 16 10 17z"/>
  </g>
  <g fill="#7EBFCD">
    <path d="M741 325c0-149-121-270-270-270-150 0-271 121-271 270 0 14 1 27 3 40h-1l3 16c8 38 24 73 47 105l217 286 217-286c23-31 39-67 47-105l3-16h-1c5-13 6-26 6-40zm-514 0c0-134 109-244 244-244 134 0 244 109 244 244 0 14-1 27-3 40H466c-24 0-43 19-43 43l15 104v4c0 18-14 32-32 32s-32-14-32-32v-4l16-101v-2c0-24-19-43-43-43H230c-2-14-3-27-3-41zm130 127l-2 10-4-4 6-6zm-24-14l-40-45h54c7 0 14 5 15 12l-29 33zm17 59l-2 12c0 3-1 5-1 8 0 15 6 29 16 40l-12 13-46-60 28-32 17 19zm36 75c6 2 13 4 21 4 4 0 8 0 12-1l34 39-37 42-48-63 18-21zm58-10c13-11 21-27 21-45 0-3 0-5-1-8l-7 1 8-1-6 1 6-1-3-22 7-8 52 58-50 56-27-31zm6-154c0-9 8-15 16-15h43l-40 45-17-20-2-10zm88 149l34 38-46 60-37-42 49-56zm18-20l49-56 28 32-46 60-31-36zm-18-21l-52-58 50-56 52 58-50 56zm26-123h85l-43 47-42-47zm-328 0h21l58 65-27 30-13-18c-18-23-31-49-39-77zm196 284l39-44 39 44-39 51-39-51zm234-207l-16 21-27-30 60-68h21c-7 28-20 54-38 77z"/>
    <path d="M585 224c2 2 5 2 7 2 4 0 9-2 11-6l21-31c4-6 2-15-4-19s-15-2-19 4l-21 31c-3 7-2 15 5 19zm-100 3c3 2 6 4 9 4 4 0 7-1 10-4 5-5 5-14-1-19l-28-26c-5-5-14-5-19 1-5 5-5 14 1 19l28 25zm-164-6l-26 30c-5 6-4 14 1 19 3 2 6 3 9 3 4 0 8-2 10-5l26-30c5-6 4-14-1-19-6-5-14-4-19 2zm51 62c2 5 7 8 12 8 2 0 3 0 5-1l36-15c7-3 10-11 7-18s-11-10-18-7l-36 15c-6 3-9 11-6 18zm116-137c2 0 3 0 5-1l39-14c7-3 11-10 8-17s-10-11-17-8l-39 14c-7 3-11 10-8 17 1 5 6 9 12 9zm-99 28c1 0 3 1 4 1 6 0 11-4 13-10 2-7-2-15-9-17l-38-12c-7-2-15 2-17 9s2 15 9 17l38 12zm175 108l40 16c2 1 3 1 5 1 5 0 10-3 13-9 3-7-1-15-8-18l-40-16c-7-3-15 1-18 8-2 8 1 16 8 18z"/>
  </g>
  <path fill="#7EBFCD" d="M7001 55c-149 0-271 121-271 271 0 59 18 114 53 162l217 286 217-286c35-47 53-103 53-161 2-151-119-272-269-272zm-50 607l-70-93V292c0-26 21-46 47-46 13 0 24 11 24 24v392zm41-5c-5 5-10 10-14 15v-99c4 5 9 10 14 15 16 16 23 26 23 34-1 9-8 19-23 35m33 41l-24 31-13-17c-1-7 3-17 22-36 5-5 10-10 14-15v37zm0-113c-4-5-9-10-14-15-30-30-30-38 0-68 5-5 10-10 14-15v98zm-47-86v-99c4 5 9 10 14 15 16 16 23 26 23 34s-7 18-23 34c-6 6-10 11-14 16zm47-88c-4-5-9-10-14-15-30-30-30-38 0-68 5-5 10-10 14-15v98zm-47-86v-98c4 5 9 10 14 15 16 16 23 26 23 34s-7 18-23 34c-6 5-10 10-14 15zm47-87c-4-5-9-10-14-15-21-21-23-30-22-36 4-2 8-4 13-4 13 0 24 11 24 24v31zm97 331l-70 93V270c0-13 11-24 24-24 26 0 46 21 46 46v277zm75-98l-48 63V292c0-41-33-74-74-74-9 0-17 2-24 6v-19c0-28-23-51-51-51s-51 23-51 51v19c-7-4-15-6-24-6-41 0-74 33-74 74v241l-48-63c-31-42-48-93-48-145 0-134 109-244 244-244 134 0 244 109 244 244 2 53-15 104-46 146z"/>
  <g fill="#7EBFCD">
    <path d="M8135 148c-18-47-70-125-148-105-11-9-34-26-49-30-2-1-5-1-7 0-16 4-38 21-49 30-78-20-130 58-148 105-45 50-70 114-70 182 0 59 18 114 53 162l217 286 217-288c35-47 53-103 53-161 1-67-24-131-69-181zm-254-78c4 1 9 0 13-3 11-9 30-23 41-28 11 5 30 18 41 28 4 3 8 4 13 3 32-11 63 0 90 33 8 10 15 21 21 30-2 0-5-1-7-1-20-2-42-5-67-23-6-4-14-3-19 3s-3 14 3 19c63 47 64 86 61 103-105-21-112-49-121-86-1-6-7-10-13-10s-11 4-13 9c-13 41-21 66-121 87-3-17-2-56 61-103 6-4 7-13 3-19s-13-7-19-3c-25 18-48 21-67 23-2 0-5 1-7 1 15-32 52-80 107-63zm249 404l-196 258-196-258c-31-42-48-93-48-145 0-61 23-119 63-164 6-4 15-5 27-6 5-1 10-1 15-2-40 55-18 97-17 99 3 5 9 8 14 7 91-17 123-40 140-73 18 36 53 56 141 73h3c5 0 9-3 12-7 1-2 24-44-17-99 5 1 11 1 15 2 11 1 20 2 27 6 41 45 64 103 64 164 1 53-16 103-47 145z"/>
    <path d="M7934 257c-7 0-14 6-14 14v22c0 7 6 14 14 14 7 0 14-6 14-14v-22c0-8-6-14-14-14zm0 113c-7 0-14 6-14 14v22c0 7 6 14 14 14 7 0 14-6 14-14v-22c0-8-6-14-14-14zm0 112c-7 0-14 6-14 14v22c0 7 6 14 14 14 7 0 14-6 14-14v-22c0-8-6-14-14-14zm-180-211c-7 0-14 6-14 14v22c0 7 6 14 14 14 7 0 14-6 14-14v-22c0-8-7-14-14-14zm0 112c-7 0-14 6-14 14v22c0 7 6 14 14 14 7 0 14-6 14-14v-22c0-8-7-14-14-14zm360-108c-7 0-14 6-14 14v22c0 7 6 14 14 14 7 0 14-6 14-14v-22c0-8-6-14-14-14zm0 112c-7 0-14 6-14 14v22c0 7 6 14 14 14 7 0 14-6 14-14v-22c0-8-6-14-14-14zm-180 207c-7 0-14 6-14 14v22c0 7 6 14 14 14 7 0 14-6 14-14v-22c0-8-6-14-14-14zm90-317c-7 0-14 6-14 14v22c0 7 6 14 14 14 7 0 14-6 14-14v-22c0-8-6-14-14-14zm0 113c-7 0-14 6-14 14v22c0 7 6 14 14 14 7 0 14-6 14-14v-22c0-8-6-14-14-14zm0 112c-7 0-14 6-14 14v22c0 7 6 14 14 14 7 0 14-6 14-14v-22c0-8-6-14-14-14zm-180-225c-7 0-14 6-14 14v22c0 7 6 14 14 14 7 0 14-6 14-14v-22c0-8-6-14-14-14zm0 113c-7 0-14 6-14 14v22c0 7 6 14 14 14 7 0 14-6 14-14v-22c0-8-6-14-14-14zm0 112c-7 0-14 6-14 14v22c0 7 6 14 14 14 7 0 14-6 14-14v-22c0-8-6-14-14-14z"/>
  </g>
  <g fill="#7EBFCD">
    <path d="M2337 315c35 0 63-25 63-56s-28-56-63-56-63 25-63 56 28 56 63 56zm0-84c20 0 36 13 36 29s-16 29-36 29-36-13-36-29 16-29 36-29z"/>
    <path d="M2239 644l3 1c17 8 35 14 54 18v22c-22 6-38 26-38 50 0 28 23 51 51 51 13 0 25-5 35-14 8 4 18 6 26 7h1c13 0 25-5 33-13s13-19 13-31c0-24-16-44-38-50v-22c19-4 36-10 54-18l3-1 119-157c35-47 53-103 53-161 0-16-1-33-4-49v-2c-1-6-2-13-4-19-33-118-140-201-263-201-122 0-230 84-262 201-1 3-2 7-2 10v2c-4 19-6 38-6 57 0 59 18 114 53 162l119 157zm126 67c13 0 24 11 24 24 0 5-2 9-5 12s-9 5-15 5c-5 0-20-3-20-10s-6-13-14-13c-7 0-14 6-13 14 0 4 1 8 2 11-4 4-10 6-16 6-13 0-24-11-24-24s11-24 24-24l13-1v-43c5 0 10 1 14 1 5 0 10 0 14-1v43h16zm168-240l-115 152c-25 12-52 18-80 18s-55-6-80-18l-106-140-9-12c-24-33-40-71-46-111l2 2c45 61 142 102 240 102 97 0 196-42 241-102-8 39-23 77-47 109zM2337 82c110 0 207 74 235 181 1 5 3 11 4 16v2c2 21-4 43-19 63-40 55-130 93-221 93-88 0-178-37-218-91-18-24-24-48-20-73v-3c26-109 126-188 239-188z"/>
  </g>
</svg>
