<svg id="Layer_1" xmlns="http://www.w3.org/2000/svg" viewBox="0 0 500 500">
  <style>
    .st0{fill:none;}
  </style>
  <g fill="#7EBFCD">
    <path d="M478.3 473.2c1-1 1.7-2 2.4-3.2.3-.4.6-.9.9-1.4 1.2-1.7 2.9-4.9 3.4-6.7 1.2-4.1.7-6.4-.7-10.5-.1-.4-.3-.9-.4-1.3-.7-2.5-1.4-5-5.9-8.9-1.9-1.7-3.5-2.2-5.4-2.9l-.2-.1c-1.6-.5-4.6-1.4-5.2-1.5-4.1-1.1-5.9-.7-9.9.7-2.8 1-4.7 2.9-6.8 5l-.6.6c-2.5 2.5-4.9 4.9-5.9 8.2-.3.9-.4 1.6-.5 2.2-.1.3-.1.6-.2.9-.2.9-.4 1.9-.4 3l-3.4 25.1 27.9-3.8c1.4-.1 3-.4 5.7-1.6 2.4-1.2 3.3-2 5.2-3.8zm-34-9.9c.2.6.5 1.1.7 1.7.3.8.7 1.5.8 1.9.9 2.4 2 4.2 3.5 5.6 3 3 5 4 8.4 5.1.1 0 .2.1.3.1l-16 2.2 2.3-16.6zm28 11.7c-3.4 1.5-7.4 1.6-7.6 1.6-1.7 0-4.1-.3-6.4-1-3.2-1-4.9-1.9-7.5-4.5-1.3-1.3-2.2-2.8-3-4.9-.2-.4-.5-1.2-.9-2-.6-1.3-1.2-2.8-1.4-3.5-.3-1.2-.5-2.2-.5-3.2l.4-2.8c.1-.3.1-.6.2-.9.1-.6.2-1.2.4-2 .9-2.8 3-5 5.4-7.3l.6-.6c1.9-1.9 3.7-3.7 6-4.5 3.6-1.3 5-1.6 8.7-.7.6.2 3.6 1 5.1 1.5l.2.1c1.8.6 3.1 1.1 4.7 2.5.5.4 1 .9 1.4 1.3 2.8 2.8 3.3 4.7 3.9 6.6.1.5.3.9.4 1.4 1.3 3.9 1.7 5.7.7 9.3-.4 1.5-2.1 4.5-3.1 6-.3.5-.7 1-1 1.4-.7 1.1-1.4 2-2.2 2.8-1.8 1.8-2.5 2.5-4.5 3.4z"/>
    <path d="M472 456c-.4-1.3-1.7-3.8-3.4-4.9-2.2-1.4-3.8-1.4-6.2-1-1.5.3-2.4.9-3.5 2s-1.8 2.5-2.1 4c-.5 2.4 0 4.4 1.5 6.5.1.2.3.4.5.5 1.1 1.1 3.1 1.8 4.5 2 2.2.3 3.9.2 5.9-1.4 1.8-1.5 3.7-4.4 2.8-7.7zm-4.2 6.1c-1.4 1.2-2.4 1.2-4.2 1-1.3-.2-3-.9-3.5-1.7-1.1-1.7-1.5-3.1-1.1-4.9.2-1.1.7-2.1 1.5-2.9.9-.9 1.4-1.2 2.4-1.4 2-.4 3.1-.4 4.6.7.2.1.4.3.6.5.9.9 1.7 2.4 1.9 3.2.6 2.2-.8 4.4-2.2 5.5zM474.4 450.1c.2.2.4.3.7.3l3 .1c.6 0 1.1-.4 1.1-1s-.4-1.1-1-1.1l-3-.1c-.6 0-1.1.4-1.1 1 0 .4.1.6.3.8zM466.9 444.3l1.6 3.2c.1.1.1.2.2.3.3.3.8.4 1.2.2.5-.3.7-.9.5-1.4l-1.6-3.2c-.3-.5-.9-.7-1.4-.5-.5.3-.7.9-.5 1.4zM457.5 445.2l3.5 1.1c.6.2 1.2-.1 1.3-.7.2-.6-.1-1.2-.7-1.3l-3.5-1.1c-.6-.2-1.2.1-1.3.7-.1.4 0 .8.3 1.1.1.1.2.2.4.2zM453.9 453.7l-.6-3.4c-.1-.6-.7-1-1.2-.8-.6.1-1 .7-.8 1.2l.6 3.4c0 .2.1.4.3.6.2.2.6.4.9.3.5-.2.9-.8.8-1.3zM452.6 461.2l-3.3-.2c-.6 0-1.1.4-1.1 1 0 .3.1.6.3.8.2.2.4.3.7.3l3.3.2c.6 0 1.1-.4 1.1-1 .1-.6-.4-1.1-1-1.1zM459.9 466.3c.1-.6-.3-1.1-.9-1.2-.6-.1-1.1.3-1.2.9l-.6 3.3c-.1.4.1.7.3.9.1.1.3.3.6.3.6.1 1.1-.3 1.2-.9l.6-3.3zM468.4 471c-.4-.4-1.1-.4-1.5 0l-2.3 2.4c-.4.4-.4 1.1 0 1.5.4.4 1.1.4 1.5 0l2.3-2.4c.4-.4.4-1.1 0-1.5zM478.2 460.4c.5-.2.8-.8.6-1.4l-1.5-3.7c-.2-.5-.8-.8-1.4-.6-.5.2-.8.8-.6 1.4l1.5 3.7c.1.1.1.3.2.4.3.3.8.4 1.2.2zM478.2 465.6c-.1-.6-.6-1-1.2-.9l-3.9.6c-.6.1-1 .6-.9 1.2 0 .2.1.4.3.6.2.2.6.3.9.3l3.9-.6c.6-.1 1-.6.9-1.2z"/>
  </g>
  <path fill="#7EBFCD" d="M389.8 49.3c1.1-.8 2.2-1.6 3.2-2.6 8.3-8.3 8.3-21.8 0-30-8.3-8.3-21.8-8.3-30 0-3.3 3.3-5.3 7.4-6 11.9l-3.8 27.9 8.2-1.1 10.3 10.3c2.6 2.6 6.8 2.6 9.3 0l8-8c2.2-2.3 2.5-5.8.8-8.4zm-12.1-14.7l-6.9 6.9c-.5.5-1.3.5-1.8 0s-.5-1.3 0-1.8l6.9-6.9c1.3-1.3 1.3-3.5 0-4.8l-.9-.9c-1.3-1.3-3.5-1.3-4.8 0l-1.6 1.6c-.5.5-1.3.5-1.8 0s-.5-1.3 0-1.8l1.6-1.6c1.3-1.3 1.3-3.5 0-4.8l-3.1-3.1c.6-.6 1.3-1.1 2-1.5 2.8 1.6 4.9 4.1 5 6.2 0 .3.1.5.3.7l.1.1c.2.2.6.3.9.2 1.9-.4 3.3-.2 4.3.5.8.6 1.3 1.5 1.6 2.9.1.3.2.6.5.7.3.2.6.2.9.1 1.6-.5 3.7.3 5.1 2 1.5 1.7 1.8 3.7 1 5.5-.1.3-.1.7 0 1 .2.3.4.5.8.6 4.2.7 6.5 3.4 7.1 4.6-.7 1.2-1.5 2.4-2.5 3.5l-9.8-9.8c-1.5-1.4-3.6-1.4-4.9-.1zm13.8-16.5c5.5 5.5 7 13.6 4.3 20.5-1.2-1.6-3.4-3.4-6.6-4.2.6-2.2 0-4.6-1.7-6.6-1.7-1.9-4.1-3-6.2-2.8-.4-1.4-1.2-2.5-2.2-3.3-1.2-.9-2.9-1.2-4.8-1-.6-2.2-2.4-4.5-4.9-6.2 7.1-3.5 16.1-2.4 22.1 3.6zm-32.4 10.8c.6-3.7 2.2-7.2 4.7-10l3.1 3.1c.5.5.5 1.3 0 1.8l-1.6 1.6c-1.3 1.3-1.3 3.5 0 4.8 1.3 1.3 3.5 1.3 4.8 0l1.6-1.6c.5-.5 1.3-.5 1.8 0l.9.9c.5.5.5 1.3 0 1.8l-6.9 6.9c-1.3 1.3-1.3 3.5 0 4.8 1.3 1.3 3.5 1.3 4.8 0l6.9-6.9c.5-.5 1.3-.5 1.8 0l9.8 9.8c-2.8 2.5-6.2 4.1-9.9 4.7L355.6 54l3.5-25.1zm23.5 24.7l-5.7 5.7c-.3.3-.8.3-1.1 0l-5.1-5.1 10.5-1.4 1.5-.3c.2.2.2.7-.1 1.1zm-3.1 10.6c-1.7 1.7-4.6 1.7-6.3 0L364 55l4-.5 6.3 6.3c1.1 1.1 3 1.1 4.1 0l5.7-5.7c.9-.9 1.1-2.2.6-3.2 1.1-.4 2.2-.8 3.3-1.4 1.2 1.7 1.1 4.2-.5 5.7l-8 8zM479.6 103.2c-8.3-8.3-21.8-8.3-30.1 0-3.3 3.3-5.3 7.4-6 11.9l-3.8 27.9 28-3.8c4.5-.7 8.7-2.7 11.9-6 8.3-8.2 8.3-21.7 0-30zm-36.5 30.9l1.2-9 15.4-15.4c1.4-1.4 3.7-1.4 5.2 0 .7.7.7 1.9 0 2.6l-21.8 21.8zm2.6 2c-.6 0-1.1 0-1.6.1l5.5-5.5c-.1.5-.1 1-.1 1.6 0 1.7-.2 2.7-.6 3.1-.6.5-1.5.7-3.2.7m-.5 4.1l-3 .4.2-1.6c.4-.5 1.1-.7 3.2-.7.6 0 1.1 0 1.6-.1l-2 2zm6.3-6.2c.1-.5.1-1.1.1-1.6 0-3.3.4-3.8 3.8-3.8.6 0 1.1 0 1.6-.1l-5.5 5.5zm2.2-7.5l5.5-5.5c-.1.5-.1 1-.1 1.6 0 1.7-.2 2.7-.6 3.1-.4.4-1.4.6-3.1.6-.7.2-1.2.2-1.7.2zm7.4-2.2c.1-.5.1-1.1.1-1.6 0-3.3.4-3.8 3.8-3.8.6 0 1.1 0 1.6-.1l-5.5 5.5zm2.2-7.4l5.5-5.5c-.1.5-.1 1.1-.1 1.6 0 1.7-.2 2.7-.6 3.1-.4.4-1.4.6-3.1.6-.6.1-1.2.1-1.7.2zm7.5-2.2c.1-.5.1-1.1.1-1.6 0-2.3.3-3 .8-3.3.3.1.7.2.9.5.7.7.7 1.9 0 2.6l-1.8 1.8zm-13 23.8l-9 1.2 21.8-21.8c.7-.7 1.9-.7 2.6 0 1.4 1.4 1.4 3.7 0 5.2l-15.4 15.4zm9.6-1.3l-6.1.8 13.4-13.4c2.2-2.2 2.2-5.9 0-8.2-.5-.5-1-.8-1.7-1l1.1-1.1c1.5-1.5 1.6-4.1 0-5.6-1.5-1.5-4.1-1.5-5.6 0l-1.1 1.1c-.2-.6-.5-1.2-1-1.6-2.2-2.2-5.9-2.3-8.2 0l-13.4 13.4.8-6.1c.6-4.1 2.5-7.8 5.4-10.7 7.5-7.5 19.6-7.5 27 0 7.5 7.5 7.5 19.6 0 27-2.8 2.9-6.5 4.8-10.6 5.4z"/>
  <g fill="#7EBFCD">
    <path d="M223.7 218.6c1-1 1.7-2 2.4-3.2.3-.4.6-.9.9-1.4 1.2-1.7 2.9-4.9 3.4-6.7 1.2-4.1.7-6.4-.7-10.5-.1-.4-.3-.9-.4-1.3-.7-2.5-1.4-5-5.9-8.9-1.9-1.7-3.5-2.2-5.4-2.9l-.2-.1c-1.6-.5-4.6-1.4-5.2-1.5-4.1-1.1-5.9-.7-9.9.7-2.8 1-4.7 2.9-6.8 5l-.6.6c-2.5 2.5-4.9 4.9-5.9 8.2-.3.9-.4 1.6-.5 2.2-.1.3-.1.6-.2.9-.2.9-.4 1.9-.4 3l-3.4 25.1L213 224c1.4-.1 3-.4 5.7-1.6 2.3-1.1 3.2-2 5-3.8zm-33.9-9.9c.2.6.5 1.1.7 1.7.3.8.7 1.5.8 1.9.9 2.4 2 4.2 3.5 5.6 3 3 5 4 8.4 5.1.1 0 .2.1.3.1l-16 2.2 2.3-16.6zm28 11.7c-3.4 1.5-7.4 1.6-7.6 1.6-1.7 0-4.1-.3-6.4-1-3.2-1-4.9-1.9-7.5-4.5-1.3-1.3-2.2-2.8-3-4.9-.2-.4-.5-1.2-.9-2-.6-1.3-1.2-2.8-1.4-3.5-.3-1.2-.5-2.2-.5-3.2l.4-2.8c.1-.3.1-.6.2-.9.1-.6.2-1.2.4-2 .9-2.8 3-5 5.4-7.3l.6-.6c1.9-1.9 3.7-3.7 6-4.5 3.6-1.3 5-1.6 8.7-.7.6.2 3.6 1 5.1 1.5l.2.1c1.8.6 3.1 1.1 4.7 2.5.5.4 1 .9 1.4 1.3 2.8 2.8 3.3 4.7 3.9 6.6.1.5.3.9.4 1.4 1.3 3.9 1.7 5.7.7 9.3-.4 1.5-2.1 4.5-3.1 6-.3.5-.7 1-1 1.4-.7 1.1-1.4 2-2.2 2.8-1.9 1.9-2.6 2.5-4.5 3.4z"/>
    <path d="M217.4 201.4c-.4-1.3-1.7-3.8-3.4-4.9-2.2-1.4-3.8-1.4-6.2-1-1.5.3-2.4.9-3.5 2s-1.8 2.5-2.1 4c-.5 2.4 0 4.4 1.5 6.5.1.2.3.4.5.5 1.1 1.1 3.1 1.8 4.5 2 2.2.3 3.9.2 5.9-1.4 1.8-1.4 3.7-4.4 2.8-7.7zm-4.2 6.1c-1.4 1.2-2.4 1.2-4.2 1-1.3-.2-3-.9-3.5-1.7-1.1-1.7-1.5-3.1-1.1-4.9.2-1.1.7-2.1 1.5-2.9.9-.9 1.4-1.2 2.4-1.4 2-.4 3.1-.4 4.6.7.2.1.4.3.6.5.9.9 1.7 2.4 1.9 3.2.6 2.3-.8 4.4-2.2 5.5zM219.8 195.6c.2.2.4.3.7.3l3 .1c.6 0 1.1-.4 1.1-1s-.4-1.1-1-1.1l-3-.1c-.6 0-1.1.4-1.1 1 0 .3.1.6.3.8zM212.4 189.8l1.6 3.2c.1.1.1.2.2.3.3.3.8.4 1.2.2.5-.3.7-.9.5-1.4l-1.6-3.2c-.3-.5-.9-.7-1.4-.5-.6.2-.8.8-.5 1.4zM202.9 190.7l3.5 1.1c.6.2 1.2-.1 1.3-.7.2-.6-.1-1.2-.7-1.3l-3.5-1.1c-.6-.2-1.2.1-1.3.7-.1.4 0 .8.3 1.1.1 0 .2.1.4.2zM199.3 199.1l-.6-3.4c-.1-.6-.7-1-1.2-.8-.6.1-1 .7-.8 1.2l.6 3.4c0 .2.1.4.3.6.2.2.6.4.9.3.5-.2.9-.7.8-1.3zM198.1 206.6l-3.3-.2c-.6 0-1.1.4-1.1 1 0 .3.1.6.3.8.2.2.4.3.7.3l3.3.2c.6 0 1.1-.4 1.1-1s-.5-1.1-1-1.1zM205.3 211.7c.1-.6-.3-1.1-.9-1.2-.6-.1-1.1.3-1.2.9l-.6 3.3c-.1.4.1.7.3.9.1.1.3.3.6.3.6.1 1.1-.3 1.2-.9l.6-3.3zM213.9 216.4s-.1 0 0 0c-.4-.4-1.1-.4-1.5 0l-2.3 2.4c-.4.4-.4 1.1 0 1.5.4.4 1.1.4 1.5 0l2.3-2.4c.4-.4.4-1 0-1.5zM223.6 205.9c.5-.2.8-.8.6-1.4l-1.5-3.7c-.2-.5-.8-.8-1.4-.6-.5.2-.8.8-.6 1.4l1.5 3.7c.1.1.1.3.2.4.4.2.8.3 1.2.2zM223.6 211c-.1-.6-.6-1-1.2-.9l-3.9.6c-.6.1-1 .6-.9 1.2 0 .2.1.4.3.6.2.2.6.3.9.3l3.9-.6c.6-.1 1-.6.9-1.2z"/>
  </g>
  <path fill="#7EBFCD" d="M387.5 220.5c2-1 3.9-2.4 5.6-4 6.2-6.3 7.7-15.6 4.4-23.3 0-.1-.1-.2-.1-.2-.8-1.8-1.8-3.5-3.1-5.1 0 0 0-.1-.1-.1-.4-.4-.8-.9-1.2-1.3-1.6-1.6-3.5-2.9-5.4-3.9-.1 0-.1-.1-.2-.1-7.9-3.9-17.7-2.6-24.3 4-3.3 3.3-5.3 7.4-6 11.9l-3.8 27.9 11.6-1.6 8.2 8.2c2.8 2.8 7.4 2.8 10.2 0l3.3-3.3c2.5-2.5 2.8-6.3.9-9.1zm-22.9-32.6c.9-.2 4.9 1.7 11.1 7.2-.7.4-1.4.6-2.3.6-.6 0-1.1.5-1.1 1.1 0 .3.1.6.3.7.2.2.5.3.7.3 1.5 0 2.8-.4 3.9-1.3.9.8 1.9 1.8 2.9 2.7l.7.7c-.7.4-1.5.7-2.5.7-.6 0-1.1.5-1.1 1.1 0 .3.1.6.3.7.2.2.5.3.7.3 1.5 0 2.9-.5 3.9-1.3 1.2 1.3 2.3 2.5 3.2 3.6-.6.4-1.4.5-2.2.5-.6 0-1.1.5-1.1 1.1 0 .3.1.6.3.7.2.2.5.3.7.3 1.3 0 2.5-.3 3.5-1 3.5 4.5 4.8 7.3 4.6 8.1-1.1.2-6.9-2.7-15.6-11.4-8.2-8.5-11.1-14.3-10.9-15.4zm22.2-3.4c1.5.8 2.9 1.7 4.2 2.9-3.9.4-7.6 2.7-7.6 6.7 0 1.5-.3 3.1-1 4.3l-.6-.6c-.2-.2-1.3-1.3-2.9-2.8 1.1-1.5 1.7-3.6 1.7-5.9-.1-3.2 3.7-4.5 6.2-4.6zm8.2 8c-3.4.6-6.6 2.8-6.6 6.6 0 1.8-.4 3.4-1.2 4.6-1.2-1.4-2.4-2.7-3.3-3.7 1-1.5 1.6-3.5 1.6-5.9 0-3.4 4-4.7 6.6-4.7l.9.1c.8 1 1.4 2 2 3zm-1.7 20.5c-.8-2.2-2.7-5-4.8-7.6.1-.1.2-.2.3-.4 1.1-1.5 1.7-3.6 1.7-5.9 0-3 3.2-4.3 5.4-4.6 2.3 6.1 1.5 13.1-2.6 18.5zm-10.1-30c-.6.2-1.2.5-1.7.8-2 1.3-3.1 3.1-3.1 5.2 0 1.7-.4 3.3-1.1 4.5-3.2-2.8-7.5-6.3-10.7-7.4 4.8-3.6 11-4.6 16.6-3.1zm-24 15.7c.5-3.3 1.8-6.3 3.8-8.9 2 5.6 11.1 14.7 11.6 15.2s9.7 9.6 15.2 11.6c-2.6 2-5.6 3.3-8.9 3.8l-25.2 3.4 3.5-25.1zm22.6 32.7c-2 2-5.2 2-7.2 0l-7-7 13.7-1.9c1.5-.2 3-.6 4.4-1.1 1.5 2 1.4 4.9-.4 6.7l-3.5 3.3zM135.3 303.9c1.1-.8 2.2-1.6 3.2-2.6 8.3-8.3 8.3-21.8 0-30-8.3-8.3-21.8-8.3-30 0-3.3 3.3-5.3 7.4-6 11.9l-3.8 27.9 8.2-1.1 10.3 10.3c2.6 2.6 6.8 2.6 9.3 0l8-8c2.2-2.4 2.5-5.8.8-8.4zm-12.2-14.7l-6.9 6.9c-.5.5-1.3.5-1.8 0s-.5-1.3 0-1.8l6.9-6.9c1.3-1.3 1.3-3.5 0-4.8l-.9-.9c-1.3-1.3-3.5-1.3-4.8 0l-1.6 1.6c-.5.5-1.3.5-1.8 0s-.5-1.3 0-1.8l1.6-1.6c1.3-1.3 1.3-3.5 0-4.8l-3.1-3.1c.6-.6 1.3-1.1 2-1.5 2.8 1.6 4.9 4.1 5 6.2 0 .3.1.5.3.7l.1.1c.2.2.6.3.9.2 1.9-.4 3.3-.2 4.3.5.8.6 1.3 1.5 1.6 2.9.1.3.2.6.5.7.3.2.6.2.9.1 1.6-.5 3.7.3 5.1 2 1.5 1.7 1.8 3.7 1 5.5-.1.3-.1.7 0 1 .2.3.4.5.8.6 4.2.7 6.5 3.4 7.1 4.6-.7 1.2-1.5 2.4-2.5 3.5l-9.8-9.8c-1.4-1.4-3.6-1.4-4.9-.1zm13.9-16.5c5.5 5.5 7 13.6 4.3 20.5-1.2-1.6-3.4-3.4-6.6-4.2.6-2.2 0-4.6-1.7-6.6-1.7-1.9-4.1-3-6.2-2.8-.4-1.4-1.2-2.5-2.2-3.3-1.2-.9-2.9-1.2-4.8-1-.6-2.2-2.4-4.5-4.9-6.2 7-3.6 16.1-2.4 22.1 3.6zm-32.5 10.7c.6-3.7 2.2-7.2 4.7-10l3.1 3.1c.5.5.5 1.3 0 1.8l-1.6 1.6c-1.3 1.3-1.3 3.5 0 4.8 1.3 1.3 3.5 1.3 4.8 0l1.6-1.6c.5-.5 1.3-.5 1.8 0l.9.9c.5.5.5 1.3 0 1.8l-6.9 6.9c-1.3 1.3-1.3 3.5 0 4.8 1.3 1.3 3.5 1.3 4.8 0l6.9-6.9c.5-.5 1.3-.5 1.8 0l9.8 9.8c-2.8 2.5-6.2 4.1-9.9 4.7l-25.2 3.4 3.4-25.1zm23.5 24.7l-5.7 5.7c-.3.3-.8.3-1.1 0l-5.1-5.1 10.5-1.4 1.5-.3c.2.3.2.8-.1 1.1zm-3.1 10.6c-1.7 1.7-4.6 1.7-6.3 0l-9.1-9.1 4-.5 6.3 6.3c1.1 1.1 3 1.1 4.1 0l5.7-5.7c.9-.9 1.1-2.2.6-3.2 1.1-.4 2.2-.8 3.3-1.4 1.2 1.7 1.1 4.2-.5 5.7l-8.1 7.9z"/>
  <g fill="#7EBFCD">
    <path d="M309.9 303c8.3-8.3 8.3-21.8 0-30-8.3-8.3-21.8-8.3-30 0-3.3 3.3-5.3 7.4-6 11.9l-3.8 27.9 28-3.8c4.4-.7 8.5-2.8 11.8-6zm-1.5-28.6c7.2 7.2 7.4 18.6.8 26.2-.6-1.2-.6-2.6.1-3.8.8-1.4 1.5-2.8 1.9-4.4 1.6-5.8-.1-12.1-4.4-16.4-4.3-4.3-10.5-5.9-16.4-4.4-1.5.4-3 1-4.4 1.9-1.2.7-2.7.8-3.8.1 7.5-6.6 19-6.3 26.2.8zm-33.3 16.8l.5-3.7c1.1-1 2.9-1 4 .1s1.1 3 0 4.1c-1.1 1.1-3 1.1-4.1 0-.1-.1-.3-.3-.4-.5zm4.9 15.9c1.1-1.1 3-1.1 4.1 0 .4.4.7.9.8 1.5l-5.8.8c0-.8.3-1.7.9-2.3zm17.7-.2l-10.6 1.5c-.2-1-.7-2-1.4-2.7-2-2-5.2-2-7.1 0-1.1 1.1-1.6 2.6-1.4 4.1l-4.6.6 2.3-16.5c2 1.3 4.7 1.1 6.4-.6 2-2 2-5.2 0-7.1-1.4-1.4-3.4-1.8-5.2-1.2.6-3.7 2.2-7 4.7-9.8 1.9 1.3 4.4 1.4 6.5.1 1.2-.7 2.5-1.3 3.8-1.6 5.1-1.4 10.6.1 14.3 3.8 3.7 3.7 5.2 9.2 3.8 14.3-.4 1.4-.9 2.6-1.6 3.8-1.3 2.1-1.2 4.6.1 6.5-2.8 2.6-6.3 4.2-10 4.8z"/>
    <path d="M298.4 278.7c-2-2-5.2-2-7.1 0-2 2-2 5.2 0 7.1 2 2 5.2 2 7.1 0 1.9-1.9 1.9-5.1 0-7.1zm-5.6 5.7c-1.1-1.1-1.1-3 0-4.1 1.1-1.1 3-1.1 4.1 0 1.1 1.1 1.1 3 0 4.1-1.2 1.1-3 1.1-4.1 0zM300 294.4c-2-2-5.2-2-7.1 0-2 2-2 5.2 0 7.1s5.2 2 7.1 0c2-1.9 2-5.1 0-7.1zm-5.6 5.7c-1.1-1.1-1.1-3 0-4.1 1.1-1.1 3-1.1 4.1 0 1.1 1.1 1.1 3 0 4.1-1.1 1.1-3 1.1-4.1 0z"/>
  </g>
  <g fill="#7EBFCD">
    <path d="M399.8 379.8c2.5-7.1 1.1-14.7-3.6-20.4l-.1-.1c-.2-.2-.4-.4-.5-.6-.1-.1-.1-.2-.2-.2l-.6-.6-.1-.1-.1-.1-.6-.6-.2-.2-.6-.6-.1-.1c-5.7-4.6-13.3-6-20.3-3.6h-.1c-2.9 1-5.7 2.7-8 5-3.3 3.3-5.3 7.4-6 11.9l-3.8 27.9 28-3.8c4.5-.7 8.7-2.7 11.9-6 2.3-2.1 4-4.9 5-7.8zm-33.6-20.5c1.3-1.3 2.7-2.3 4.2-3.2 0 1 .4 1.9 1.1 2.6-.8.2-1.7.6-2.3 1.3-.7.7-1.1 1.5-1.3 2.3l-.7-.7c-.6-.6-1.4-.9-2.2-1 .4-.5.8-.9 1.2-1.3zm24.8-1.9c.3.2.5.4.7.6l.1.1c.2.2.4.3.5.5l.2.2.5.5.1.1.1.1.5.5.2.2c.2.2.3.4.5.6l.1.1c4.3 5.2 5.3 12.2 3.2 18.4-.2.4-.6.8-1 .9-.5.1-1.1 0-1.4-.4l-2.8-2.8-.2-.2-10.9-10.9-.6-.6-7.9-7.9c-.4-.4-.5-.9-.4-1.4.1-.5.4-.8.9-1 5.8-2.3 12.5-1.4 17.6 2.4zm-1.7 25.2c-.7 0-1.3-.3-1.8-.7l-5.1-5.1 8.8 1.7c.8 1 .7 2.4-.2 3.3-.4.5-1.1.8-1.7.8zm-15.1-21.1l4.9 4.9-1.3 5.8-7.1-7.1c-1-1-1-2.6 0-3.6s2.5-1 3.5 0zm5.9 12.7c-.3-.1-.5-.3-.4-.6l1.2-5.4 7.7 7.7-8.5-1.7zm-16.6-11.1c.6-.6 1.6-.6 2.2 0l20.3 20.3 3.5 3.5c.6.6.6 1.6 0 2.2-2 2-5.3 2-7.3 0l-18.7-18.7c-2-2-2-5.3 0-7.3zm27.4 22.2l-.7-.7c.9-.2 1.7-.6 2.3-1.3.7-.7 1.1-1.5 1.3-2.3.7.7 1.6 1.1 2.6 1.1-.8 1.5-1.9 2.9-3.2 4.2-.4.4-.8.8-1.3 1.2 0-.8-.4-1.6-1-2.2zm-30.1-15.1c.3.6.7 1.2 1.2 1.7l18.7 18.7c.5.5 1.1.9 1.7 1.2l-25 3.4 3.4-25z"/>
    <path d="M389.1 359.5l.6 1.6c.1.1.1.3.2.4.3.3.7.4 1.1.2.5-.2.8-.8.6-1.4l-.6-1.6c-.2-.5-.8-.8-1.4-.6-.5.3-.7.9-.5 1.4zM391.8 364.8c0 .2.1.4.3.6.2.2.6.4.9.3l1.4-.2c.6-.1 1-.7.9-1.2-.1-.6-.7-1-1.2-.9l-1.4.2c-.6.1-1 .7-.9 1.2zM382 357.8c.2.2.4.3.7.3l1.7.1c.6 0 1.1-.4 1.1-1s-.4-1.1-1-1.1l-1.7-.1c-.6 0-1.1.4-1.1 1 0 .3.1.6.3.8zM393.9 369.3l1 1.6c0 .1.1.1.1.2.3.3.9.4 1.3.1.5-.3.6-1 .3-1.5l-1-1.6c-.3-.5-1-.6-1.5-.3-.3.4-.5 1-.2 1.5z"/>
  </g>
  <g fill="#7EBFCD">
    <path d="M309.9 133.3c8.3-8.3 8.3-21.8 0-30.1s-21.8-8.3-30 0c-.8.8-1.4 1.6-2.1 2.4l-.7 1.1c-1.7 2.6-2.7 5.4-3.2 8.5l-3.8 27.9 28-3.8c3-.4 5.9-1.5 8.4-3.2l1.1-.7c.7-.7 1.5-1.4 2.3-2.1zm-28.6-28.6c7.5-7.5 19.6-7.5 27.1 0s7.5 19.6 0 27c-.8.8-1.6 1.4-2.4 2.1l-13.6-13.6c-1.3-1.3-3.5-1.3-4.8 0l-4.9 6.6c-.1.1-.1.2-.2.3-1 1-2.6 1-3.5 0-1-1-1-2.6 0-3.5l.2-.2 6.5-4.8.1-.1c1.3-1.3 1.3-3.5 0-4.8l-6.5-6.5c.6-.9 1.3-1.7 2-2.5zm.2 14.3l-.7.5v-.4l.7-.1zm-.5-2.1l.3-4.7 3 3c.4.4.5 1 .2 1.5l-3.5.2zm-2.4 4.2l-.8.6c-.2.1-.3.3-.5.4-.8.8-1.3 1.9-1.3 3.1l-1.4.1.8-5.9 3.3-.2-.1 1.9zm-2.1 6.1c.2.5.5 1 .9 1.4.2.2.5.4.7.6l-.2 4-4.4.3.8-6.1 2.2-.2zm3.7 2.7c1.3.1 2.7-.3 3.7-1.3.1-.1.3-.3.4-.5l-.5-.4.5.4-.4-.3.4.3 1-1.4.8-.1-.4 6.1-5.8.4.3-3.2zm8.9-8.2c.5-.4 1.3-.4 1.7 0l2.4 2.4-4.7.3.1-2 .5-.7zm-3.4 13.2l-.2 4-5.9.8.3-4.4 5.8-.4zm2.2-.2l5.8-.4-.2 3.3-5.9.8.3-3.7zm.1-2.1l.4-6.1 5.8-.4-.4 6.1-5.8.4zm8.3-5.5l4.7 4.7-5 .3.3-5zM278.1 109l1.2 1.2-.4 6.8-3.2.2.2-1.7c.4-2.3 1.1-4.5 2.2-6.5zm-4.9 26.6l4.6-.3-.3 4.6-5 .7.7-5zm24.5 1.6l-2 .3.2-3.2 7.1-.4 1.2 1.2c-2.1 1-4.2 1.7-6.5 2.1z"/>
    <path d="M306.8 119c0 .2.1.4.3.5.2.2.6.4 1 .3l2.9-.6c.6-.1.9-.7.8-1.2-.1-.6-.7-.9-1.2-.8l-2.9.6c-.7 0-1 .6-.9 1.2zM301.1 113.6c0 .3.1.5.3.7.2.2.5.3.8.3.6 0 1-.5 1-1.1l-.1-3c0-.6-.5-1-1.1-1-.6 0-1 .5-1 1.1l.1 3zM292.4 104.1l-3.1.2c-.6 0-1 .5-1 1.1 0 .3.1.5.3.7.2.2.5.3.8.3l3.1-.2c.6 0 1-.5 1-1.1 0-.6-.5-1-1.1-1zM291.7 110.4c-.2.4-.1.9.2 1.2.1.1.2.2.3.2l2.8 1.2c.5.2 1.2 0 1.4-.6.2-.5 0-1.2-.6-1.4l-2.8-1.2c-.4-.2-1 0-1.3.6zM305.8 109.2c.1.1.2.2.3.2l3 1.4c.5.2 1.2 0 1.4-.5.2-.5 0-1.2-.5-1.4l-3-1.4c-.5-.2-1.2 0-1.4.5-.2.5-.1.9.2 1.2zM298.7 105.3c.1.1.1.2.2.3.3.3.8.4 1.2.2.5-.3.7-.9.4-1.4l-1.5-2.8c-.3-.5-.9-.7-1.4-.4-.5.3-.7.9-.4 1.4l1.5 2.7zM302.4 121.1l1.3 3.1c.1.1.1.2.2.3.3.3.8.4 1.2.2.5-.2.8-.9.6-1.4l-1.3-3.1c-.2-.5-.9-.8-1.4-.6s-.8.9-.6 1.5z"/>
  </g>
  <path fill="#7EBFCD" d="M225 357.8c-8.3-8.3-21.8-8.3-30.1 0-3.3 3.3-5.3 7.4-6 11.9l-3.8 27.9 28-3.8c4.5-.7 8.7-2.7 11.9-6 8.3-8.2 8.3-21.7 0-30zm-36.5 30.9l1.2-9 15.4-15.4c1.4-1.4 3.7-1.4 5.2 0 .7.7.7 1.9 0 2.6l-21.8 21.8zm2.6 2c-.6 0-1.1 0-1.6.1l5.5-5.5c-.1.5-.1 1-.1 1.6 0 1.7-.2 2.7-.6 3.1-.5.5-1.5.7-3.2.7m-.4 4.1l-3 .4.2-1.6c.4-.5 1.1-.7 3.2-.7.6 0 1.1 0 1.6-.1l-2 2zm6.2-6.3c.1-.5.1-1.1.1-1.6 0-3.3.4-3.8 3.8-3.8.6 0 1.1 0 1.6-.1l-5.5 5.5zm2.2-7.4l5.5-5.5c-.1.5-.1 1-.1 1.6 0 1.7-.2 2.7-.6 3.1-.4.4-1.4.6-3.1.6-.7.1-1.2.1-1.7.2zm7.5-2.2c.1-.5.1-1.1.1-1.6 0-3.3.4-3.8 3.8-3.8.6 0 1.1 0 1.6-.1l-5.5 5.5zm2.2-7.5l5.5-5.5c-.1.5-.1 1.1-.1 1.6 0 1.7-.2 2.7-.6 3.1-.4.4-1.4.6-3.1.6-.7.2-1.2.2-1.7.2zm7.4-2.2c.1-.5.1-1.1.1-1.6 0-2.3.3-3 .8-3.3.3.1.7.2.9.5.7.7.7 1.9 0 2.6l-1.8 1.8zm-13 23.9l-9 1.2 21.8-21.8c.7-.7 1.9-.7 2.6 0 1.4 1.4 1.4 3.7 0 5.2l-15.4 15.4zm9.6-1.4l-6.1.8 13.4-13.4c2.2-2.2 2.2-5.9 0-8.2-.5-.5-1-.8-1.7-1l1.1-1.1c1.5-1.5 1.5-4.1 0-5.6s-4.1-1.5-5.6 0l-1.1 1.1c-.2-.6-.5-1.2-1-1.6-2.2-2.2-5.9-2.3-8.2 0l-13.4 13.4.8-6.1c.6-4.1 2.5-7.8 5.4-10.7 7.5-7.5 19.6-7.5 27 0 7.5 7.5 7.5 19.6 0 27-2.8 3-6.5 4.8-10.6 5.4z"/>
  <g fill="#7EBFCD">
    <path d="M314.8 460c1.6-3.6 3-10.8-2.4-14.1-.1-1.1-.4-3.3-1.1-4.4-.1-.2-.2-.3-.4-.4-1.1-.7-3.3-1-4.4-1.1-3.2-5.4-10.4-4-14-2.4-5.3.3-10.2 2.5-14 6.2-3.3 3.3-5.3 7.4-6 11.9l-3.8 27.9 28-3.8c4.5-.7 8.7-2.7 11.9-6 3.7-3.6 5.9-8.5 6.2-13.8zm-9.8-18.4c.2.3.5.5.9.6 1.1.1 2.9.4 3.8.7.4.9.6 2.7.7 3.8 0 .4.2.7.6.9 2.4 1.2 3.5 3.5 3.2 6.8-.1 1-.3 2-.5 2.8-.1-.2-.2-.3-.4-.5-1-1.2-2.1-2.6-2.5-5-.1-.6-.6-1-1.2-.9-.6.1-1 .6-.9 1.2.9 6.1-1.2 8.3-2.3 9.1-4.6-7-3.5-8.9-1.9-11.5.2-.4.2-.9-.1-1.3-.3-.3-.8-.4-1.2-.2-3 1.5-4.9 2.5-11.6-1.9.8-1.1 3-3.2 9.1-2.3.6.1 1.1-.3 1.2-.9.1-.6-.3-1.1-.9-1.2-2.4-.4-3.8-1.5-5-2.5-.2-.1-.3-.2-.5-.4 2.7-.7 7.4-1.3 9.5 2.7zm-8.6 36.3l-25.2 3.4 3.4-25.2c.6-4.1 2.5-7.8 5.4-10.7 3.4-3.4 7.9-5.4 12.6-5.6.5.1 1.1.6 1.8 1.2.3.2.6.5 1 .7-5.3.8-6.4 4.4-6.4 4.6-.1.4 0 .9.4 1.2 6 4.1 9.1 4.6 11.8 3.7-1 3-.2 6 3.8 11.9 0 .1.1.1.1.2.3.3.7.4 1 .3.2-.1 3.7-1.1 4.6-6.4.3.4.5.7.7 1 .6.7 1 1.3 1.2 1.8-.2 4.8-2.2 9.3-5.6 12.6-2.8 2.8-6.5 4.7-10.6 5.3z"/>
    <path d="M297.6 455c-.4-.4-1.1-.4-1.5 0l-1.2 1.2c-.4.4-.4 1.1 0 1.5.4.4 1.1.4 1.5 0l1.2-1.2c.4-.5.4-1.1 0-1.5zM291.3 461.2c-.4-.4-1.1-.4-1.5 0l-1.2 1.2c-.4.4-.4 1.1 0 1.5.4.4 1.1.4 1.5 0l1.2-1.2c.5-.4.5-1.1 0-1.5zM285.1 467.4c-.4-.4-1.1-.4-1.5 0l-1.2 1.2c-.4.4-.4 1.1 0 1.5.4.4 1.1.4 1.5 0l1.2-1.2c.4-.4.4-1.1 0-1.5zM286.8 445.7c-.4-.4-1.1-.4-1.5 0l-1.2 1.2c-.4.4-.4 1.1 0 1.5.4.4 1.1.4 1.5 0l1.2-1.2c.5-.4.5-1.1 0-1.5zM280.6 451.9c-.4-.4-1.1-.4-1.5 0l-1.2 1.2c-.4.4-.4 1.1 0 1.5.4.4 1.1.4 1.5 0l1.2-1.2c.4-.4.4-1.1 0-1.5zM306.6 465.9c-.4-.4-1.1-.4-1.5 0l-1.2 1.2c-.4.4-.4 1.1 0 1.5.4.4 1.1.4 1.5 0l1.2-1.2c.4-.4.4-1 0-1.5zM300.4 472.2c-.4-.4-1.1-.4-1.5 0l-1.2 1.2c-.4.4-.4 1.1 0 1.5.4.4 1.1.4 1.5 0l1.2-1.2c.4-.4.4-1.1 0-1.5zM278.9 473.7c-.4-.4-1.1-.4-1.5 0l-1.2 1.2c-.4.4-.4 1.1 0 1.5.4.4 1.1.4 1.5 0l1.2-1.2c.4-.4.4-1.1 0-1.5zM301.5 461.1c-.4-.4-1.1-.4-1.5 0l-1.2 1.2c-.4.4-.4 1.1 0 1.5.4.4 1.1.4 1.5 0l1.2-1.2c.4-.4.4-1.1 0-1.5zM295.2 467.3c-.4-.4-1.1-.4-1.5 0l-1.2 1.2c-.4.4-.4 1.1 0 1.5.4.4 1.1.4 1.5 0l1.2-1.2c.4-.4.4-1.1 0-1.5zM289 473.6c-.4-.4-1.1-.4-1.5 0l-1.2 1.2c-.4.4-.4 1.1 0 1.5.4.4 1.1.4 1.5 0l1.2-1.2c.4-.5.4-1.1 0-1.5zM291.5 451.1c-.4-.4-1.1-.4-1.5 0l-1.2 1.2c-.4.4-.4 1.1 0 1.5.4.4 1.1.4 1.5 0l1.2-1.2c.4-.4.4-1.1 0-1.5zM285.2 457.3c-.4-.4-1.1-.4-1.5 0l-1.2 1.2c-.4.4-.4 1.1 0 1.5.4.4 1.1.4 1.5 0l1.2-1.2c.4-.4.4-1.1 0-1.5zM279 463.6c-.4-.4-1.1-.4-1.5 0l-1.2 1.2c-.4.4-.4 1.1 0 1.5.4.4 1.1.4 1.5 0l1.2-1.2c.4-.5.4-1.1 0-1.5z"/>
  </g>
  <path fill="#7EBFCD" d="M133 475.1c2-1 3.9-2.4 5.6-4 6.2-6.3 7.7-15.6 4.4-23.3 0-.1-.1-.2-.1-.2-.8-1.8-1.8-3.5-3.1-5.1 0 0 0-.1-.1-.1-.4-.4-.8-.9-1.2-1.3-1.6-1.6-3.5-2.9-5.4-3.9-.1 0-.1-.1-.2-.1-7.9-3.9-17.7-2.6-24.3 4-3.3 3.3-5.3 7.4-6 11.9l-3.8 27.9 11.6-1.6 8.2 8.2c2.8 2.8 7.4 2.8 10.2 0l3.3-3.3c2.4-2.5 2.7-6.3.9-9.1zm-22.9-32.6c.9-.2 4.9 1.7 11.1 7.2-.7.4-1.4.6-2.3.6-.6 0-1.1.5-1.1 1.1 0 .3.1.6.3.7.2.2.5.3.7.3 1.5 0 2.8-.4 3.9-1.3.9.8 1.9 1.8 2.9 2.7l.7.7c-.7.4-1.5.7-2.5.7-.6 0-1.1.5-1.1 1.1 0 .3.1.6.3.7s.5.3.7.3c1.5 0 2.9-.5 3.9-1.3 1.2 1.3 2.3 2.5 3.2 3.6-.6.4-1.4.5-2.2.5-.6 0-1.1.5-1.1 1.1 0 .3.1.6.3.8.2.2.5.3.7.3 1.3 0 2.5-.3 3.5-1 3.5 4.5 4.8 7.3 4.6 8.1-1.1.2-6.9-2.7-15.6-11.4-8.3-8.7-11.1-14.4-10.9-15.5zm22.2-3.5c1.5.8 2.9 1.7 4.2 2.9-3.9.4-7.6 2.7-7.6 6.7 0 1.5-.3 3.1-1 4.3l-.6-.6c-.2-.2-1.3-1.3-2.9-2.8 1.1-1.5 1.7-3.6 1.7-5.9-.2-3.2 3.6-4.5 6.2-4.6zm8.1 8.1c-3.4.6-6.6 2.8-6.6 6.6 0 1.8-.4 3.4-1.2 4.6-1.2-1.4-2.4-2.7-3.3-3.7 1-1.5 1.6-3.5 1.6-5.9 0-3.4 4-4.7 6.6-4.7l.9.1c.8.9 1.5 1.9 2 3zm-1.6 20.5c-.8-2.2-2.7-5-4.8-7.6.1-.1.2-.2.3-.4 1.1-1.5 1.7-3.6 1.7-5.9 0-3 3.2-4.3 5.4-4.6 2.3 6.1 1.4 13.1-2.6 18.5zm-10.2-30c-.6.2-1.2.5-1.7.8-2 1.3-3.1 3.1-3.1 5.2 0 1.7-.4 3.3-1.1 4.5-3.2-2.8-7.5-6.3-10.7-7.4 4.8-3.6 11-4.7 16.6-3.1zm-24 15.6c.5-3.3 1.8-6.3 3.8-8.9 2 5.6 11.1 14.7 11.6 15.2s9.7 9.6 15.2 11.6c-2.6 2-5.6 3.3-8.9 3.8l-25.2 3.4 3.5-25.1zm22.6 32.7c-2 2-5.2 2-7.2 0l-7-7 13.7-1.9c1.5-.2 3-.6 4.4-1.1 1.5 2 1.4 4.9-.4 6.7l-3.5 3.3z"/>
  <g fill="#7EBFCD">
    <path d="M55.3 387.8c8.3-8.3 8.3-21.8 0-30.1s-21.8-8.3-30 0c-.8.8-1.4 1.6-2.1 2.4l-.7 1.1c-1.7 2.6-2.7 5.4-3.2 8.5l-3.8 27.9 28-3.8c3-.4 5.9-1.5 8.4-3.2l1.1-.7c.8-.6 1.6-1.3 2.3-2.1zm-28.5-28.5c7.5-7.5 19.6-7.5 27.1 0s7.5 19.6 0 27c-.8.8-1.6 1.4-2.4 2.1l-13.6-13.6c-1.3-1.3-3.5-1.3-4.8 0l-4.9 6.6c-.1.1-.1.2-.2.3-1 1-2.6 1-3.5 0-1-1-1-2.6 0-3.5l.2-.2 6.5-4.8.1-.1c1.3-1.3 1.3-3.5 0-4.8l-6.5-6.5c.5-.9 1.2-1.8 2-2.5zm.1 14.2l-.7.5v-.4l.7-.1zm-.5-2.1l.3-4.7 3 3c.4.4.5 1 .2 1.5l-3.5.2zm-2.3 4.2l-.8.6c-.2.1-.3.3-.5.4-.8.8-1.3 1.9-1.3 3.1l-1.4.1.8-5.9 3.3-.2-.1 1.9zm-2.2 6.2c.2.5.5 1 .9 1.4.2.2.5.4.7.6l-.2 4-4.4.3.8-6.1 2.2-.2zm3.8 2.7c1.3.1 2.7-.3 3.7-1.3.1-.1.3-.3.4-.5l-.5-.4.5.4-.4-.3.4.3 1-1.4.8-.1-.4 6.1-5.8.4.3-3.2zm8.9-8.3c.5-.4 1.3-.4 1.7 0l2.4 2.4-4.7.3.1-2 .5-.7zm-3.4 13.2l-.2 4-5.9.8.3-4.4 5.8-.4zm2.1-.1l5.8-.4-.2 3.3-5.9.8.3-3.7zm.1-2.1l.4-6.1 5.8-.4-.4 6.1-5.8.4zm8.3-5.5l4.7 4.7-5 .3.3-5zm-18.1-18.2l1.2 1.2-.4 6.8-3.2.2.2-1.7c.3-2.3 1.1-4.4 2.2-6.5zm-5 26.7l4.6-.3-.3 4.6-5 .7.7-5zm24.5 1.5l-2 .3.2-3.2 7.1-.4 1.2 1.2c-2 1.1-4.2 1.8-6.5 2.1z"/>
    <path d="M52.2 373.5c0 .2.1.4.3.5.2.2.6.4 1 .3l2.9-.6c.6-.1.9-.7.8-1.2-.1-.6-.7-.9-1.2-.8l-2.9.6c-.6.1-1 .7-.9 1.2zM46.5 368.1c0 .3.1.5.3.7.2.2.5.3.8.3.6 0 1-.5 1-1.1l-.1-3c0-.6-.5-1-1.1-1-.6 0-1 .5-1 1.1l.1 3zM37.8 358.7l-3.1.2c-.6 0-1 .5-1 1.1 0 .3.1.5.3.7.2.2.5.3.8.3l3.1-.2c.6 0 1-.5 1-1.1 0-.6-.5-1.1-1.1-1zM37.2 364.9c-.2.4-.1.9.2 1.2.1.1.2.2.3.2l2.8 1.2c.5.2 1.2 0 1.4-.6.2-.5 0-1.2-.6-1.4l-2.8-1.2c-.5-.2-1.1.1-1.3.6zM51.2 363.8c.1.1.2.2.3.2l3 1.4c.5.2 1.2 0 1.4-.5.2-.5 0-1.2-.5-1.4l-3-1.4c-.5-.2-1.2 0-1.4.5-.2.4-.1.9.2 1.2zM44.2 359.8c.1.1.1.2.2.3.3.3.8.4 1.2.2.5-.3.7-.9.4-1.4l-1.5-2.8c-.3-.5-.9-.7-1.4-.4-.5.3-.7.9-.4 1.4l1.5 2.7zM47.9 375.6l1.3 3.1c.1.1.1.2.2.3.3.3.8.4 1.2.2.5-.2.8-.9.6-1.4l-1.3-3.1c-.2-.5-.9-.8-1.4-.6-.6.4-.9 1-.6 1.5z"/>
  </g>
  <g fill="#7EBFCD">
    <path d="M55.3 48.4c8.3-8.3 8.3-21.8 0-30-8.3-8.3-21.8-8.3-30 0-3.3 3.3-5.3 7.4-6 11.9l-3.8 27.9 28-3.8c4.5-.6 8.6-2.7 11.8-6zm-1.5-28.5c7.2 7.1 7.5 18.6.9 26.1-.6-1.2-.6-2.6.1-3.8.8-1.4 1.5-2.8 1.9-4.4 1.6-5.8-.1-12.1-4.4-16.4-4.3-4.2-10.5-5.9-16.4-4.4-1.5.4-3 1-4.4 1.9-1.2.7-2.7.8-3.8.1 7.5-6.6 19-6.3 26.1.9zM20.6 36.7l.5-3.7c1.1-1 2.9-1 4 .1s1.1 3 0 4.1-3 1.1-4.1 0c-.2-.2-.3-.3-.4-.5zm4.9 15.9c1.1-1.1 3-1.1 4.1 0 .4.4.7.9.8 1.5l-5.8.8c0-.9.3-1.7.9-2.3zm17.6-.3l-10.6 1.5c-.2-1-.7-2-1.4-2.7-2-2-5.2-2-7.1 0-1.1 1.1-1.6 2.6-1.4 4.1l-4.6.6 2.3-16.5c2 1.3 4.7 1.1 6.4-.6 2-2 2-5.2 0-7.1-1.4-1.4-3.4-1.8-5.2-1.2.6-3.7 2.2-7 4.7-9.8 1.9 1.3 4.4 1.4 6.5.1 1.2-.7 2.5-1.3 3.8-1.6 5.1-1.4 10.6.1 14.3 3.8 3.7 3.7 5.2 9.2 3.8 14.3-.4 1.4-.9 2.6-1.6 3.8-1.3 2.1-1.2 4.6.1 6.5-2.8 2.6-6.2 4.3-10 4.8z"/>
    <path d="M43.8 24.2c-2-2-5.2-2-7.1 0-2 2-2 5.2 0 7.1 2 2 5.2 2 7.1 0 2-2 2-5.2 0-7.1zm-5.6 5.6c-1.1-1.1-1.1-3 0-4.1 1.1-1.1 3-1.1 4.1 0 1.1 1.1 1.1 3 0 4.1-1.1 1.1-3 1.1-4.1 0zM45.5 39.9c-2-2-5.2-2-7.1 0-2 2-2 5.2 0 7.1 2 2 5.2 2 7.1 0 1.9-2 1.9-5.2 0-7.1zm-5.7 5.6c-1.1-1.1-1.1-3 0-4.1 1.1-1.1 3-1.1 4.1 0 1.1 1.1 1.1 3 0 4.1-1.1 1.1-2.9 1.1-4.1 0z"/>
  </g>
  <g fill="#7EBFCD">
    <path d="M145.2 125.3c0-.1.1-.1 0 0 2.5-7.1 1.1-14.7-3.6-20.4l-.1-.1c-.2-.2-.4-.4-.5-.6-.1-.1-.1-.2-.2-.2l-.6-.6-.1-.1-.1-.1-.6-.6-.2-.2-.6-.6-.1-.1c-5.7-4.6-13.3-6-20.3-3.6h-.1c-2.9 1-5.7 2.7-8 5-3.3 3.3-5.3 7.4-6 11.9l-3.8 27.9 28-3.8c4.5-.7 8.7-2.7 11.9-6 2.3-2.2 4-4.9 5-7.8zm-33.6-20.6c1.3-1.3 2.7-2.3 4.2-3.2 0 1 .4 1.9 1.1 2.6-.8.2-1.7.6-2.3 1.3-.7.7-1.1 1.5-1.3 2.3l-.7-.7c-.6-.6-1.4-.9-2.2-1 .5-.4.8-.9 1.2-1.3zm24.9-1.9c.3.2.5.4.7.6l.1.1c.2.2.4.3.5.5l.2.2.5.5.1.1.1.1.5.5.2.2c.2.2.3.4.5.6l.1.1c4.3 5.2 5.3 12.2 3.2 18.4-.2.4-.6.8-1 .9-.5.1-1.1 0-1.4-.4l-2.8-2.8-.2-.2-10.9-10.9-.6-.6-7.9-7.9c-.4-.4-.5-.9-.4-1.4.1-.5.4-.8.9-1 5.8-2.2 12.4-1.4 17.6 2.4zm-1.8 25.2c-.7 0-1.3-.3-1.8-.7l-5.1-5.1 8.8 1.7c.8 1 .7 2.4-.2 3.3-.4.6-1 .8-1.7.8zm-15-21.1l4.9 4.9-1.3 5.8-7.1-7.1c-1-1-1-2.6 0-3.6.9-.9 2.5-.9 3.5 0zm5.8 12.7c-.3-.1-.5-.3-.4-.6l1.2-5.4 7.7 7.7-8.5-1.7zM109 108.5c.6-.6 1.6-.6 2.2 0l20.3 20.3 3.5 3.5c.6.6.6 1.6 0 2.2-2 2-5.3 2-7.3 0L109 115.8c-2-2-2-5.3 0-7.3zm27.4 22.3l-.7-.7c.9-.2 1.7-.6 2.3-1.3.7-.7 1.1-1.5 1.3-2.3.7.7 1.6 1.1 2.6 1.1-.8 1.5-1.9 2.9-3.2 4.2-.4.4-.8.8-1.3 1.2-.1-.9-.4-1.6-1-2.2zm-30.2-15.2c.3.6.7 1.2 1.2 1.7l18.7 18.7c.5.5 1.1.9 1.7 1.2l-25 3.4 3.4-25z"/>
    <path d="M134.5 105l.6 1.6c.1.1.1.3.2.4.3.3.7.4 1.1.2.5-.2.8-.8.6-1.4l-.6-1.6c-.2-.5-.8-.8-1.4-.6-.4.2-.7.8-.5 1.4zM137.2 110.3c0 .2.1.4.3.6.2.2.6.4.9.3l1.4-.2c.6-.1 1-.7.9-1.2-.1-.6-.7-1-1.2-.9l-1.4.2c-.6.1-1 .6-.9 1.2zM127.5 103.2c.2.2.4.3.7.3l1.7.1c.6 0 1.1-.4 1.1-1s-.4-1.1-1-1.1l-1.7-.1c-.6 0-1.1.4-1.1 1 0 .3.1.6.3.8zM139.4 114.8l1 1.6c0 .1.1.1.1.2.3.3.9.4 1.3.1.5-.3.6-1 .3-1.5l-1-1.6c-.3-.5-1-.6-1.5-.3-.4.3-.5 1-.2 1.5z"/>
  </g>
  <g fill="#7EBFCD">
    <path d="M60.3 205.5c1.6-3.6 3-10.8-2.4-14.1-.1-1.1-.4-3.3-1.1-4.4-.1-.2-.2-.3-.4-.4-1.1-.7-3.3-1-4.4-1.1-3.2-5.4-10.4-4-14-2.4-5.3.3-10.2 2.5-14 6.2-3.3 3.3-5.3 7.4-6 11.9l-3.8 27.9 28-3.8c4.5-.7 8.7-2.7 11.9-6 3.7-3.6 5.9-8.6 6.2-13.8zm-9.9-18.4c.2.3.5.5.9.6 1.1.1 2.9.4 3.8.7.4.9.6 2.7.7 3.8 0 .4.2.7.6.9 2.4 1.2 3.5 3.5 3.2 6.8-.1 1-.3 2-.5 2.8-.1-.2-.2-.3-.4-.5-1-1.2-2.1-2.6-2.5-5-.1-.6-.6-1-1.2-.9-.6.1-1 .6-.9 1.2.9 6.1-1.2 8.3-2.3 9.1-4.6-7-3.5-8.9-1.9-11.5.2-.4.2-.9-.1-1.3-.3-.3-.8-.4-1.2-.2-3 1.5-4.9 2.5-11.6-1.9.8-1.1 3-3.2 9.1-2.3.6.1 1.1-.3 1.2-.9.1-.6-.3-1.1-.9-1.2-2.4-.4-3.8-1.5-5-2.5-.2-.1-.3-.2-.5-.4 2.7-.8 7.5-1.4 9.5 2.7zm-8.6 36.2l-25.2 3.4 3.4-25.2c.6-4.1 2.5-7.8 5.4-10.7 3.4-3.4 7.9-5.4 12.6-5.6.5.1 1.1.6 1.8 1.2.3.2.6.5 1 .7-5.3.8-6.4 4.4-6.4 4.6-.1.4 0 .9.4 1.2 6 4.1 9.1 4.6 11.8 3.7-1 3-.2 6 3.8 11.9 0 .1.1.1.1.2.3.3.7.4 1 .3.2-.1 3.7-1.1 4.6-6.4.3.4.5.7.7 1 .6.7 1 1.3 1.2 1.8-.2 4.8-2.2 9.3-5.6 12.6-2.8 2.8-6.5 4.7-10.6 5.3z"/>
    <path d="M43 200.4c-.4-.4-1.1-.4-1.5 0l-1.2 1.2c-.4.4-.4 1.1 0 1.5.4.4 1.1.4 1.5 0l1.2-1.2c.4-.4.4-1.1 0-1.5zM36.8 206.6c-.4-.4-1.1-.4-1.5 0l-1.2 1.2c-.4.4-.4 1.1 0 1.5.4.4 1.1.4 1.5 0l1.2-1.2c.4-.4.4-1 0-1.5zM30.5 212.9c-.4-.4-1.1-.4-1.5 0l-1.2 1.2c-.4.4-.4 1.1 0 1.5.4.4 1.1.4 1.5 0l1.2-1.2c.5-.4.5-1.1 0-1.5zM32.3 191.1c-.4-.4-1.1-.4-1.5 0l-1.2 1.2c-.4.4-.4 1.1 0 1.5.4.4 1.1.4 1.5 0l1.2-1.2c.4-.4.4-1 0-1.5zM26 197.4c-.4-.4-1.1-.4-1.5 0l-1.2 1.2c-.4.4-.4 1.1 0 1.5s1.1.4 1.5 0l1.2-1.2c.5-.4.5-1.1 0-1.5zM52 211.4c-.4-.4-1.1-.4-1.5 0l-1.2 1.2c-.4.4-.4 1.1 0 1.5.4.4 1.1.4 1.5 0l1.2-1.2c.4-.4.4-1.1 0-1.5zM45.8 217.6c-.4-.4-1.1-.4-1.5 0l-1.2 1.2c-.4.4-.4 1.1 0 1.5.4.4 1.1.4 1.5 0l1.2-1.2c.4-.4.4-1.1 0-1.5zM24.3 219.1c-.4-.4-1.1-.4-1.5 0l-1.2 1.2c-.4.4-.4 1.1 0 1.5s1.1.4 1.5 0l1.2-1.2c.4-.4.4-1.1 0-1.5zM46.9 206.5c-.4-.4-1.1-.4-1.5 0l-1.2 1.2c-.4.4-.4 1.1 0 1.5.4.4 1.1.4 1.5 0l1.2-1.2c.4-.4.4-1.1 0-1.5zM40.7 212.8c-.4-.4-1.1-.4-1.5 0L38 214c-.4.4-.4 1.1 0 1.5.4.4 1.1.4 1.5 0l1.2-1.2c.4-.5.4-1.1 0-1.5zM34.4 219c-.4-.4-1.1-.4-1.5 0l-1.2 1.2c-.4.4-.4 1.1 0 1.5s1.1.4 1.5 0l1.2-1.2c.4-.4.4-1.1 0-1.5zM36.9 196.5c-.4-.4-1.1-.4-1.5 0l-1.2 1.2c-.4.4-.4 1.1 0 1.5.4.4 1.1.4 1.5 0l1.2-1.2c.4-.4.4-1.1 0-1.5zM30.7 202.8c-.4-.4-1.1-.4-1.5 0L28 204c-.4.4-.4 1.1 0 1.5.4.4 1.1.4 1.5 0l1.2-1.2c.4-.5.4-1.1 0-1.5zM24.4 209c-.4-.4-1.1-.4-1.5 0l-1.2 1.2c-.4.4-.4 1.1 0 1.5s1.1.4 1.5 0l1.2-1.2c.4-.4.4-1.1 0-1.5z"/>
  </g>
  <g fill="#7EBFCD">
    <path d="M465.1 287.5c1.9 1.9 4.9 2.1 6.6.4 1.7-1.7 1.5-4.7-.4-6.6-1.9-1.9-4.9-2.1-6.6-.4-1.7 1.7-1.5 4.7.4 6.6zm4.7-4.7c1.1 1.1 1.3 2.7.4 3.6-.9.9-2.5.7-3.6-.4s-1.3-2.7-.4-3.6c.9-.9 2.5-.7 3.6.4z"/>
    <path d="M441.3 300.4l.1.2c.5 1.4 1.2 2.8 2 4l-1.2 1.2c-1.6-.9-3.6-.7-4.9.7-1.6 1.6-1.6 4.2 0 5.7.7.7 1.7 1.1 2.7 1.2.2.7.6 1.4 1.1 1.8l.1.1c.7.7 1.6 1.1 2.6 1.1.9 0 1.8-.4 2.5-1 1.3-1.3 1.5-3.3.7-4.9l1.2-1.2c1.2.8 2.6 1.5 4 2l.2.1 15.4-2.1c4.6-.7 8.7-2.8 12-6 .9-.9 1.7-1.9 2.5-3l.1-.1v-.1c.3-.4.6-.8.8-1.3 4.9-8.4 3.5-19-3.4-25.8-6.8-6.8-17.5-8.2-25.8-3.4-.2.1-.5.3-.7.4 0 0-.1 0-.1.1l-.1.1c-1.3.8-2.4 1.8-3.5 2.8-3.3 3.3-5.4 7.4-6 12l-2.3 15.4zm3.3 10.7c.8.8.8 2 0 2.7-.3.3-.6.4-.9.4-.4 0-.8-.2-1.1-.5-.3-.3-.9-1.3-.5-1.7.4-.4.4-1.1 0-1.5-.4-.4-1.1-.4-1.5 0-.2.2-.4.5-.5.7-.5 0-.9-.2-1.3-.6-.8-.8-.8-2 0-2.7.8-.8 2-.8 2.7 0l.8.7 2.4-2.4c.3.3.5.6.8.8l.8.8-2.4 2.4.7.9zm22.7-4l-14.9 2c-2.1-.7-3.9-1.9-5.5-3.5s-2.7-3.4-3.5-5.5l1.9-13.8.2-1.1c.5-3.2 1.7-6.2 3.6-8.7v.2c-.9 5.9 2.2 13.6 7.7 19.1 5.4 5.4 13.3 8.6 19.2 7.7-2.6 1.9-5.5 3.1-8.7 3.6zm10.8-32.6c6.2 6.2 7.4 15.7 3 23.2-.2.4-.4.7-.7 1.1l-.1.1c-1.1 1.3-2.6 2.2-4.6 2.5-5.3.8-12.5-2.1-17.5-7.1-4.9-4.9-7.9-12-7.1-17.2.3-2.3 1.3-4 3-5.2h.1c7.6-4.9 17.6-3.7 23.9 2.6z"/>
  </g>
  <g fill="#7EBFCD">
    <path d="M210.4 32.8c1.9 1.9 4.9 2.1 6.6.4 1.7-1.7 1.5-4.7-.4-6.6-1.9-1.9-4.9-2.1-6.6-.4-1.7 1.7-1.5 4.6.4 6.6zm4.7-4.7c1.1 1.1 1.3 2.7.4 3.6-.9.9-2.5.7-3.6-.4s-1.3-2.7-.4-3.6c.9-.9 2.5-.7 3.6.4z"/>
    <path d="M186.5 45.7l.1.2c.5 1.4 1.2 2.8 2 4l-1.2 1.2c-1.6-.9-3.6-.7-4.9.7-1.6 1.6-1.6 4.2 0 5.7.7.7 1.7 1.1 2.7 1.2.2.7.6 1.4 1.1 1.8l.1.1c.7.7 1.6 1.1 2.6 1.1.9 0 1.8-.4 2.5-1 1.3-1.3 1.5-3.3.7-4.9l1.2-1.2c1.2.8 2.6 1.5 4 2l.2.1 15.4-2.1c4.6-.7 8.7-2.8 12-6 .9-.9 1.7-1.9 2.5-3l.1-.1v-.1c.3-.4.6-.8.8-1.3 4.9-8.4 3.5-19-3.4-25.8-6.8-6.8-17.5-8.2-25.8-3.4-.2.1-.5.3-.7.4 0 0-.1 0-.1.1l-.1.1c-1.3.8-2.4 1.8-3.5 2.8-3.3 3.3-5.4 7.4-6 12l-2.3 15.4zm3.3 10.7c.8.8.8 2 0 2.7-.3.3-.6.4-.9.4-.4 0-.8-.2-1.1-.5-.3-.3-.9-1.3-.5-1.7.4-.4.4-1.1 0-1.5-.4-.4-1.1-.4-1.5 0-.2.2-.4.5-.5.7-.5 0-.9-.2-1.3-.6-.8-.8-.8-2 0-2.7.8-.8 2-.8 2.7 0l.8.7 2.4-2.4c.3.3.5.6.8.8l.8.8-2.4 2.4.7.9zm22.8-4l-14.9 2c-2.1-.7-3.9-1.9-5.5-3.5s-2.7-3.4-3.5-5.5l1.9-13.8.2-1.1c.5-3.2 1.7-6.2 3.6-8.7v.2c-.9 5.9 2.2 13.6 7.7 19.1 5.4 5.4 13.3 8.6 19.2 7.7-2.6 1.9-5.5 3.1-8.7 3.6zm10.8-32.6c6.2 6.2 7.4 15.7 3 23.2-.2.4-.4.7-.7 1.1l-.1.1c-1.1 1.3-2.6 2.2-4.6 2.5-5.3.8-12.5-2.1-17.5-7.1-4.9-4.9-7.9-12-7.1-17.2.3-2.3 1.3-4 3-5.2h.1c7.6-4.9 17.6-3.7 23.9 2.6z"/>
  </g>
</svg>
