<?xml version="1.0" encoding="utf-8"?>
<!-- Generator: Adobe Illustrator 19.2.1, SVG Export Plug-In . SVG Version: 6.00 Build 0)  -->
<svg version="1.1" id="Layer_1" xmlns="http://www.w3.org/2000/svg" xmlns:xlink="http://www.w3.org/1999/xlink" x="0px" y="0px"
	 viewBox="0 0 500 500" style="enable-background:new 0 0 500 500;" xml:space="preserve" >
<style type="text/css">
	.st0{fill:none;}
</style>
<g>
	<path fill="#7EBFCD" d="M478.3,473.2c1-1,1.7-2,2.4-3.2c0.3-0.4,0.6-0.9,0.9-1.4c1.2-1.7,2.9-4.9,3.4-6.7c1.2-4.1,0.7-6.4-0.7-10.5
		c-0.1-0.4-0.3-0.9-0.4-1.3c-0.7-2.5-1.4-5-5.9-8.9c-1.9-1.7-3.5-2.2-5.4-2.9l-0.2-0.1c-1.6-0.5-4.6-1.4-5.2-1.5
		c-4.1-1.1-5.9-0.7-9.9,0.7c-2.8,1-4.7,2.9-6.8,5l-0.6,0.6c-2.5,2.5-4.9,4.9-5.9,8.2c-0.3,0.9-0.4,1.6-0.5,2.2
		c-0.1,0.3-0.1,0.6-0.2,0.9c-0.2,0.9-0.4,1.9-0.4,3l-3.4,25.1l27.9-3.8l0,0c1.4-0.1,3-0.4,5.7-1.6
		C475.5,475.8,476.4,475,478.3,473.2z M444.3,463.3c0.2,0.6,0.5,1.1,0.7,1.7c0.3,0.8,0.7,1.5,0.8,1.9c0.9,2.4,2,4.2,3.5,5.6
		c3,3,5,4,8.4,5.1c0.1,0,0.2,0.1,0.3,0.1l-16,2.2L444.3,463.3z M472.3,475c-3.4,1.5-7.4,1.6-7.6,1.6c-1.7,0-4.1-0.3-6.4-1
		c-3.2-1-4.9-1.9-7.5-4.5c-1.3-1.3-2.2-2.8-3-4.9c-0.2-0.4-0.5-1.2-0.9-2c-0.6-1.3-1.2-2.8-1.4-3.5c-0.3-1.2-0.5-2.2-0.5-3.2
		l0.4-2.8c0.1-0.3,0.1-0.6,0.2-0.9c0.1-0.6,0.2-1.2,0.4-2c0.9-2.8,3-5,5.4-7.3l0.6-0.6c1.9-1.9,3.7-3.7,6-4.5c3.6-1.3,5-1.6,8.7-0.7
		c0.6,0.2,3.6,1,5.1,1.5l0.2,0.1c1.8,0.6,3.1,1.1,4.7,2.5c0.5,0.4,1,0.9,1.4,1.3c2.8,2.8,3.3,4.7,3.9,6.6c0.1,0.5,0.3,0.9,0.4,1.4
		c1.3,3.9,1.7,5.7,0.7,9.3c-0.4,1.5-2.1,4.5-3.1,6c-0.3,0.5-0.7,1-1,1.4c-0.7,1.1-1.4,2-2.2,2.8C475,473.4,474.3,474.1,472.3,475z"
		/>
	<path fill="#7EBFCD" d="M472,456c-0.4-1.3-1.7-3.8-3.4-4.9c-2.2-1.4-3.8-1.4-6.2-1c-1.5,0.3-2.4,0.9-3.5,2c-1.1,1.1-1.8,2.5-2.1,4
		c-0.5,2.4,0,4.4,1.5,6.5c0.1,0.2,0.3,0.4,0.5,0.5c1.1,1.1,3.1,1.8,4.5,2c2.2,0.3,3.9,0.2,5.9-1.4C471,462.2,472.9,459.3,472,456z
		 M467.8,462.1c-1.4,1.2-2.4,1.2-4.2,1c-1.3-0.2-3-0.9-3.5-1.7c-1.1-1.7-1.5-3.1-1.1-4.9c0.2-1.1,0.7-2.1,1.5-2.9
		c0.9-0.9,1.4-1.2,2.4-1.4c2-0.4,3.1-0.4,4.6,0.7c0.2,0.1,0.4,0.3,0.6,0.5c0.9,0.9,1.7,2.4,1.9,3.2
		C470.6,458.8,469.2,461,467.8,462.1z"/>
	<path fill="#7EBFCD" d="M474.4,450.1c0.2,0.2,0.4,0.3,0.7,0.3l3,0.1c0.6,0,1.1-0.4,1.1-1c0-0.6-0.4-1.1-1-1.1l-3-0.1c-0.6,0-1.1,0.4-1.1,1
		C474.1,449.7,474.2,449.9,474.4,450.1z"/>
	<path fill="#7EBFCD" d="M466.9,444.3l1.6,3.2c0.1,0.1,0.1,0.2,0.2,0.3c0.3,0.3,0.8,0.4,1.2,0.2c0.5-0.3,0.7-0.9,0.5-1.4l-1.6-3.2
		c-0.3-0.5-0.9-0.7-1.4-0.5C466.9,443.2,466.7,443.8,466.9,444.3z"/>
	<path fill="#7EBFCD" d="M457.5,445.2l3.5,1.1c0.6,0.2,1.2-0.1,1.3-0.7c0.2-0.6-0.1-1.2-0.7-1.3l-3.5-1.1c-0.6-0.2-1.2,0.1-1.3,0.7
		c-0.1,0.4,0,0.8,0.3,1.1C457.2,445.1,457.3,445.2,457.5,445.2z"/>
	<path fill="#7EBFCD" d="M453.9,453.7l-0.6-3.4c-0.1-0.6-0.7-1-1.2-0.8c-0.6,0.1-1,0.7-0.8,1.2l0.6,3.4c0,0.2,0.1,0.4,0.3,0.6
		c0.2,0.2,0.6,0.4,0.9,0.3C453.6,454.8,454,454.2,453.9,453.7z"/>
	<path fill="#7EBFCD" d="M452.6,461.2l-3.3-0.2c-0.6,0-1.1,0.4-1.1,1c0,0.3,0.1,0.6,0.3,0.8c0.2,0.2,0.4,0.3,0.7,0.3l3.3,0.2c0.6,0,1.1-0.4,1.1-1
		C453.7,461.7,453.2,461.2,452.6,461.2z"/>
	<path fill="#7EBFCD" d="M459.9,466.3c0.1-0.6-0.3-1.1-0.9-1.2c-0.6-0.1-1.1,0.3-1.2,0.9l-0.6,3.3c-0.1,0.4,0.1,0.7,0.3,0.9
		c0.1,0.1,0.3,0.3,0.6,0.3c0.6,0.1,1.1-0.3,1.2-0.9L459.9,466.3z"/>
	<path fill="#7EBFCD" d="M468.4,471C468.4,471,468.4,471,468.4,471c-0.4-0.4-1.1-0.4-1.5,0l-2.3,2.4c-0.4,0.4-0.4,1.1,0,1.5c0,0,0,0,0,0
		c0.4,0.4,1.1,0.4,1.5,0l2.3-2.4C468.8,472.1,468.8,471.4,468.4,471z"/>
	<path fill="#7EBFCD" d="M478.2,460.4c0.5-0.2,0.8-0.8,0.6-1.4l-1.5-3.7c-0.2-0.5-0.8-0.8-1.4-0.6c-0.5,0.2-0.8,0.8-0.6,1.4l1.5,3.7
		c0.1,0.1,0.1,0.3,0.2,0.4C477.3,460.5,477.8,460.6,478.2,460.4z"/>
	<path fill="#7EBFCD" d="M478.2,465.6c-0.1-0.6-0.6-1-1.2-0.9l-3.9,0.6c-0.6,0.1-1,0.6-0.9,1.2c0,0.2,0.1,0.4,0.3,0.6c0.2,0.2,0.6,0.3,0.9,0.3
		l3.9-0.6C477.9,466.7,478.3,466.2,478.2,465.6z"/>
</g>
<path fill="#7EBFCD" d="M389.8,49.3c1.1-0.8,2.2-1.6,3.2-2.6c8.3-8.3,8.3-21.8,0-30l0,0c-8.3-8.3-21.8-8.3-30,0c-3.3,3.3-5.3,7.4-6,11.9l-3.8,27.9
	l8.2-1.1l10.3,10.3c2.6,2.6,6.8,2.6,9.3,0l8-8C391.2,55.4,391.5,51.9,389.8,49.3z M377.7,34.6l-6.9,6.9c-0.5,0.5-1.3,0.5-1.8,0
	c-0.5-0.5-0.5-1.3,0-1.8l6.9-6.9c1.3-1.3,1.3-3.5,0-4.8l-0.9-0.9c-1.3-1.3-3.5-1.3-4.8,0l-1.6,1.6c-0.5,0.5-1.3,0.5-1.8,0
	c-0.5-0.5-0.5-1.3,0-1.8l1.6-1.6c1.3-1.3,1.3-3.5,0-4.8l-3.1-3.1c0.6-0.6,1.3-1.1,2-1.5c2.8,1.6,4.9,4.1,5,6.2
	c0,0.3,0.1,0.5,0.3,0.7c0,0,0.1,0.1,0.1,0.1c0.2,0.2,0.6,0.3,0.9,0.2c1.9-0.4,3.3-0.2,4.3,0.5c0.8,0.6,1.3,1.5,1.6,2.9
	c0.1,0.3,0.2,0.6,0.5,0.7c0.3,0.2,0.6,0.2,0.9,0.1c1.6-0.5,3.7,0.3,5.1,2c1.5,1.7,1.8,3.7,1,5.5c-0.1,0.3-0.1,0.7,0,1
	c0.2,0.3,0.4,0.5,0.8,0.6c4.2,0.7,6.5,3.4,7.1,4.6c-0.7,1.2-1.5,2.4-2.5,3.5l-9.8-9.8C381.1,33.3,379,33.3,377.7,34.6z M391.5,18.1
	L391.5,18.1c5.5,5.5,7,13.6,4.3,20.5c-1.2-1.6-3.4-3.4-6.6-4.2c0.6-2.2,0-4.6-1.7-6.6c-1.7-1.9-4.1-3-6.2-2.8
	c-0.4-1.4-1.2-2.5-2.2-3.3c-1.2-0.9-2.9-1.2-4.8-1c-0.6-2.2-2.4-4.5-4.9-6.2C376.5,11,385.5,12.1,391.5,18.1z M359.1,28.9
	c0.6-3.7,2.2-7.2,4.7-10l3.1,3.1c0.5,0.5,0.5,1.3,0,1.8l-1.6,1.6c-1.3,1.3-1.3,3.5,0,4.8c1.3,1.3,3.5,1.3,4.8,0l1.6-1.6
	c0.5-0.5,1.3-0.5,1.8,0l0.9,0.9c0.5,0.5,0.5,1.3,0,1.8l-6.9,6.9c-1.3,1.3-1.3,3.5,0,4.8c1.3,1.3,3.5,1.3,4.8,0l6.9-6.9
	c0.5-0.5,1.3-0.5,1.8,0l9.8,9.8c-2.8,2.5-6.2,4.1-9.9,4.7L355.6,54L359.1,28.9z M382.6,53.6l-5.7,5.7c-0.3,0.3-0.8,0.3-1.1,0
	l-5.1-5.1l10.5-1.4c0.5-0.1,1-0.2,1.5-0.3C382.9,52.7,382.9,53.2,382.6,53.6z M379.5,64.2c-1.7,1.7-4.6,1.7-6.3,0L364,55l4-0.5
	l6.3,6.3c1.1,1.1,3,1.1,4.1,0l5.7-5.7c0.9-0.9,1.1-2.2,0.6-3.2c1.1-0.4,2.2-0.8,3.3-1.4c1.2,1.7,1.1,4.2-0.5,5.7L379.5,64.2z"/>
<path fill="#7EBFCD" d="M479.6,103.2L479.6,103.2c-8.3-8.3-21.8-8.3-30.1,0c-3.3,3.3-5.3,7.4-6,11.9l-3.8,27.9l28-3.8c4.5-0.7,8.7-2.7,11.9-6
	C487.9,125,487.9,111.5,479.6,103.2z M443.1,134.1l1.2-9l15.4-15.4c1.4-1.4,3.7-1.4,5.2,0c0.7,0.7,0.7,1.9,0,2.6L443.1,134.1z
	 M445.7,136.1c-0.6,0-1.1,0-1.6,0.1l5.5-5.5c-0.1,0.5-0.1,1-0.1,1.6c0,1.7-0.2,2.7-0.6,3.1C448.3,135.9,447.4,136.1,445.7,136.1
	 M445.2,140.2l-3,0.4l0.2-1.6c0.4-0.5,1.1-0.7,3.2-0.7c0.6,0,1.1,0,1.6-0.1L445.2,140.2z M451.5,134c0.1-0.5,0.1-1.1,0.1-1.6
	c0-3.3,0.4-3.8,3.8-3.8c0.6,0,1.1,0,1.6-0.1L451.5,134z M453.7,126.5l5.5-5.5c-0.1,0.5-0.1,1-0.1,1.6c0,1.7-0.2,2.7-0.6,3.1
	c-0.4,0.4-1.4,0.6-3.1,0.6C454.7,126.5,454.2,126.5,453.7,126.5z M461.1,124.3c0.1-0.5,0.1-1.1,0.1-1.6c0-3.3,0.4-3.8,3.8-3.8
	c0.6,0,1.1,0,1.6-0.1L461.1,124.3z M463.3,116.9l5.5-5.5c-0.1,0.5-0.1,1.1-0.1,1.6l0,0c0,1.7-0.2,2.7-0.6,3.1
	c-0.4,0.4-1.4,0.6-3.1,0.6C464.4,116.8,463.8,116.8,463.3,116.9z M470.8,114.7c0.1-0.5,0.1-1.1,0.1-1.6c0-2.3,0.3-3,0.8-3.3
	c0.3,0.1,0.7,0.2,0.9,0.5c0.7,0.7,0.7,1.9,0,2.6L470.8,114.7z M457.8,138.5l-9,1.2l21.8-21.8l0,0c0.7-0.7,1.9-0.7,2.6,0
	c1.4,1.4,1.4,3.7,0,5.2L457.8,138.5z M467.4,137.2l-6.1,0.8l13.4-13.4c2.2-2.2,2.2-5.9,0-8.2c-0.5-0.5-1-0.8-1.7-1l1.1-1.1
	c1.5-1.5,1.6-4.1,0-5.6c-1.5-1.5-4.1-1.5-5.6,0l-1.1,1.1c-0.2-0.6-0.5-1.2-1-1.6c-2.2-2.2-5.9-2.3-8.2,0l-13.4,13.4l0.8-6.1
	c0.6-4.1,2.5-7.8,5.4-10.7c7.5-7.5,19.6-7.5,27,0l0,0c7.5,7.5,7.5,19.6,0,27C475.2,134.7,471.5,136.6,467.4,137.2z"/>
<g>
	<path fill="#7EBFCD" d="M223.7,218.6c1-1,1.7-2,2.4-3.2c0.3-0.4,0.6-0.9,0.9-1.4c1.2-1.7,2.9-4.9,3.4-6.7c1.2-4.1,0.7-6.4-0.7-10.5
		c-0.1-0.4-0.3-0.9-0.4-1.3c-0.7-2.5-1.4-5-5.9-8.9c-1.9-1.7-3.5-2.2-5.4-2.9l-0.2-0.1c-1.6-0.5-4.6-1.4-5.2-1.5
		c-4.1-1.1-5.9-0.7-9.9,0.7c-2.8,1-4.7,2.9-6.8,5l-0.6,0.6c-2.5,2.5-4.9,4.9-5.9,8.2c-0.3,0.9-0.4,1.6-0.5,2.2
		c-0.1,0.3-0.1,0.6-0.2,0.9c-0.2,0.9-0.4,1.9-0.4,3l-3.4,25.1L213,224l0,0c1.4-0.1,3-0.4,5.7-1.6C221,221.3,221.9,220.4,223.7,218.6
		z M189.8,208.7c0.2,0.6,0.5,1.1,0.7,1.7c0.3,0.8,0.7,1.5,0.8,1.9c0.9,2.4,2,4.2,3.5,5.6c3,3,5,4,8.4,5.1c0.1,0,0.2,0.1,0.3,0.1
		l-16,2.2L189.8,208.7z M217.8,220.4c-3.4,1.5-7.4,1.6-7.6,1.6c-1.7,0-4.1-0.3-6.4-1c-3.2-1-4.9-1.9-7.5-4.5c-1.3-1.3-2.2-2.8-3-4.9
		c-0.2-0.4-0.5-1.2-0.9-2c-0.6-1.3-1.2-2.8-1.4-3.5c-0.3-1.2-0.5-2.2-0.5-3.2l0.4-2.8c0.1-0.3,0.1-0.6,0.2-0.9
		c0.1-0.6,0.2-1.2,0.4-2c0.9-2.8,3-5,5.4-7.3l0.6-0.6c1.9-1.9,3.7-3.7,6-4.5c3.6-1.3,5-1.6,8.7-0.7c0.6,0.2,3.6,1,5.1,1.5l0.2,0.1
		c1.8,0.6,3.1,1.1,4.7,2.5c0.5,0.4,1,0.9,1.4,1.3c2.8,2.8,3.3,4.7,3.9,6.6c0.1,0.5,0.3,0.9,0.4,1.4c1.3,3.9,1.7,5.7,0.7,9.3
		c-0.4,1.5-2.1,4.5-3.1,6c-0.3,0.5-0.7,1-1,1.4c-0.7,1.1-1.4,2-2.2,2.8C220.4,218.9,219.7,219.5,217.8,220.4z"/>
	<path fill="#7EBFCD" d="M217.4,201.4c-0.4-1.3-1.7-3.8-3.4-4.9c-2.2-1.4-3.8-1.4-6.2-1c-1.5,0.3-2.4,0.9-3.5,2c-1.1,1.1-1.8,2.5-2.1,4
		c-0.5,2.4,0,4.4,1.5,6.5c0.1,0.2,0.3,0.4,0.5,0.5c1.1,1.1,3.1,1.8,4.5,2c2.2,0.3,3.9,0.2,5.9-1.4
		C216.4,207.7,218.3,204.7,217.4,201.4z M213.2,207.5c-1.4,1.2-2.4,1.2-4.2,1c-1.3-0.2-3-0.9-3.5-1.7c-1.1-1.7-1.5-3.1-1.1-4.9
		c0.2-1.1,0.7-2.1,1.5-2.9c0.9-0.9,1.4-1.2,2.4-1.4c2-0.4,3.1-0.4,4.6,0.7c0.2,0.1,0.4,0.3,0.6,0.5c0.9,0.9,1.7,2.4,1.9,3.2
		C216,204.3,214.6,206.4,213.2,207.5z"/>
	<path fill="#7EBFCD" d="M219.8,195.6c0.2,0.2,0.4,0.3,0.7,0.3l3,0.1c0.6,0,1.1-0.4,1.1-1c0-0.6-0.4-1.1-1-1.1l-3-0.1c-0.6,0-1.1,0.4-1.1,1
		C219.5,195.1,219.6,195.4,219.8,195.6z"/>
	<path fill="#7EBFCD" d="M212.4,189.8l1.6,3.2c0.1,0.1,0.1,0.2,0.2,0.3c0.3,0.3,0.8,0.4,1.2,0.2c0.5-0.3,0.7-0.9,0.5-1.4l-1.6-3.2
		c-0.3-0.5-0.9-0.7-1.4-0.5C212.3,188.6,212.1,189.2,212.4,189.8z"/>
	<path fill="#7EBFCD" d="M202.9,190.7l3.5,1.1c0.6,0.2,1.2-0.1,1.3-0.7c0.2-0.6-0.1-1.2-0.7-1.3l-3.5-1.1c-0.6-0.2-1.2,0.1-1.3,0.7
		c-0.1,0.4,0,0.8,0.3,1.1C202.6,190.5,202.7,190.6,202.9,190.7z"/>
	<path fill="#7EBFCD" d="M199.3,199.1l-0.6-3.4c-0.1-0.6-0.7-1-1.2-0.8c-0.6,0.1-1,0.7-0.8,1.2l0.6,3.4c0,0.2,0.1,0.4,0.3,0.6
		c0.2,0.2,0.6,0.4,0.9,0.3C199,200.2,199.4,199.7,199.3,199.1z"/>
	<path fill="#7EBFCD" d="M198.1,206.6l-3.3-0.2c-0.6,0-1.1,0.4-1.1,1c0,0.3,0.1,0.6,0.3,0.8c0.2,0.2,0.4,0.3,0.7,0.3l3.3,0.2c0.6,0,1.1-0.4,1.1-1
		C199.1,207.1,198.6,206.6,198.1,206.6z"/>
	<path fill="#7EBFCD" d="M205.3,211.7c0.1-0.6-0.3-1.1-0.9-1.2c-0.6-0.1-1.1,0.3-1.2,0.9l-0.6,3.3c-0.1,0.4,0.1,0.7,0.3,0.9
		c0.1,0.1,0.3,0.3,0.6,0.3c0.6,0.1,1.1-0.3,1.2-0.9L205.3,211.7z"/>
	<path fill="#7EBFCD" d="M213.9,216.4C213.9,216.4,213.8,216.4,213.9,216.4c-0.4-0.4-1.1-0.4-1.5,0l-2.3,2.4c-0.4,0.4-0.4,1.1,0,1.5c0,0,0,0,0,0
		c0.4,0.4,1.1,0.4,1.5,0l2.3-2.4C214.3,217.5,214.3,216.9,213.9,216.4z"/>
	<path fill="#7EBFCD" d="M223.6,205.9c0.5-0.2,0.8-0.8,0.6-1.4l-1.5-3.7c-0.2-0.5-0.8-0.8-1.4-0.6c-0.5,0.2-0.8,0.8-0.6,1.4l1.5,3.7
		c0.1,0.1,0.1,0.3,0.2,0.4C222.8,205.9,223.2,206,223.6,205.9z"/>
	<path fill="#7EBFCD" d="M223.6,211c-0.1-0.6-0.6-1-1.2-0.9l-3.9,0.6c-0.6,0.1-1,0.6-0.9,1.2c0,0.2,0.1,0.4,0.3,0.6c0.2,0.2,0.6,0.3,0.9,0.3
		l3.9-0.6C223.3,212.1,223.7,211.6,223.6,211z"/>
</g>
<path fill="#7EBFCD" d="M387.5,220.5c2-1,3.9-2.4,5.6-4c0,0,0,0,0,0c0,0,0,0,0,0c0,0,0,0,0,0c6.2-6.3,7.7-15.6,4.4-23.3c0-0.1-0.1-0.2-0.1-0.2
	c-0.8-1.8-1.8-3.5-3.1-5.1c0,0,0-0.1-0.1-0.1c-0.4-0.4-0.8-0.9-1.2-1.3l0,0c-1.6-1.6-3.5-2.9-5.4-3.9c-0.1,0-0.1-0.1-0.2-0.1
	c-7.9-3.9-17.7-2.6-24.3,4c0,0,0,0,0,0c0,0,0,0,0,0c0,0,0,0,0,0c-3.3,3.3-5.3,7.4-6,11.9l-3.8,27.9l11.6-1.6l8.2,8.2
	c2.8,2.8,7.4,2.8,10.2,0l3.3-3.3C389.1,227.1,389.4,223.3,387.5,220.5z M364.6,187.9c0.9-0.2,4.9,1.7,11.1,7.2
	c-0.7,0.4-1.4,0.6-2.3,0.6c-0.6,0-1.1,0.5-1.1,1.1c0,0.3,0.1,0.6,0.3,0.7c0.2,0.2,0.5,0.3,0.7,0.3c1.5,0,2.8-0.4,3.9-1.3
	c0.9,0.8,1.9,1.8,2.9,2.7c0.2,0.2,0.5,0.5,0.7,0.7c-0.7,0.4-1.5,0.7-2.5,0.7c-0.6,0-1.1,0.5-1.1,1.1c0,0.3,0.1,0.6,0.3,0.7
	c0.2,0.2,0.5,0.3,0.7,0.3c1.5,0,2.9-0.5,3.9-1.3c1.2,1.3,2.3,2.5,3.2,3.6c-0.6,0.4-1.4,0.5-2.2,0.5c-0.6,0-1.1,0.5-1.1,1.1
	c0,0.3,0.1,0.6,0.3,0.7c0.2,0.2,0.5,0.3,0.7,0.3c1.3,0,2.5-0.3,3.5-1c3.5,4.5,4.8,7.3,4.6,8.1c-1.1,0.2-6.9-2.7-15.6-11.4
	C367.3,194.8,364.4,189,364.6,187.9z M386.8,184.5c1.5,0.8,2.9,1.7,4.2,2.9c-3.9,0.4-7.6,2.7-7.6,6.7c0,1.5-0.3,3.1-1,4.3
	c-0.3-0.3-0.6-0.6-0.6-0.6c-0.2-0.2-1.3-1.3-2.9-2.8c1.1-1.5,1.7-3.6,1.7-5.9C380.5,185.9,384.3,184.6,386.8,184.5z M395,192.5
	c-3.4,0.6-6.6,2.8-6.6,6.6c0,1.8-0.4,3.4-1.2,4.6c-1.2-1.4-2.4-2.7-3.3-3.7c1-1.5,1.6-3.5,1.6-5.9c0-3.4,4-4.7,6.6-4.7l0.9,0.1
	C393.8,190.5,394.4,191.5,395,192.5z M393.3,213c-0.8-2.2-2.7-5-4.8-7.6c0.1-0.1,0.2-0.2,0.3-0.4c1.1-1.5,1.7-3.6,1.7-5.9
	c0-3,3.2-4.3,5.4-4.6C398.2,200.6,397.4,207.6,393.3,213z M383.2,183c-0.6,0.2-1.2,0.5-1.7,0.8c-2,1.3-3.1,3.1-3.1,5.2
	c0,1.7-0.4,3.3-1.1,4.5c-3.2-2.8-7.5-6.3-10.7-7.4C371.4,182.5,377.6,181.5,383.2,183z M359.2,198.7c0.5-3.3,1.8-6.3,3.8-8.9
	c2,5.6,11.1,14.7,11.6,15.2c0.5,0.5,9.7,9.6,15.2,11.6c-2.6,2-5.6,3.3-8.9,3.8l-25.2,3.4L359.2,198.7z M381.8,231.4
	c-2,2-5.2,2-7.2,0l-7-7l13.7-1.9c1.5-0.2,3-0.6,4.4-1.1c1.5,2,1.4,4.9-0.4,6.7L381.8,231.4z"/>
<path fill="#7EBFCD" d="M135.3,303.9c1.1-0.8,2.2-1.6,3.2-2.6c8.3-8.3,8.3-21.8,0-30l0,0c-8.3-8.3-21.8-8.3-30,0c-3.3,3.3-5.3,7.4-6,11.9l-3.8,27.9
	l8.2-1.1l10.3,10.3c2.6,2.6,6.8,2.6,9.3,0l8-8C136.7,309.9,137,306.5,135.3,303.9z M123.1,289.2l-6.9,6.9c-0.5,0.5-1.3,0.5-1.8,0
	c-0.5-0.5-0.5-1.3,0-1.8l6.9-6.9c1.3-1.3,1.3-3.5,0-4.8l-0.9-0.9c-1.3-1.3-3.5-1.3-4.8,0l-1.6,1.6c-0.5,0.5-1.3,0.5-1.8,0
	c-0.5-0.5-0.5-1.3,0-1.8l1.6-1.6c1.3-1.3,1.3-3.5,0-4.8l-3.1-3.1c0.6-0.6,1.3-1.1,2-1.5c2.8,1.6,4.9,4.1,5,6.2
	c0,0.3,0.1,0.5,0.3,0.7c0,0,0.1,0.1,0.1,0.1c0.2,0.2,0.6,0.3,0.9,0.2c1.9-0.4,3.3-0.2,4.3,0.5c0.8,0.6,1.3,1.5,1.6,2.9
	c0.1,0.3,0.2,0.6,0.5,0.7c0.3,0.2,0.6,0.2,0.9,0.1c1.6-0.5,3.7,0.3,5.1,2c1.5,1.7,1.8,3.7,1,5.5c-0.1,0.3-0.1,0.7,0,1
	c0.2,0.3,0.4,0.5,0.8,0.6c4.2,0.7,6.5,3.4,7.1,4.6c-0.7,1.2-1.5,2.4-2.5,3.5l-9.8-9.8C126.6,287.9,124.4,287.9,123.1,289.2z
	 M137,272.7L137,272.7c5.5,5.5,7,13.6,4.3,20.5c-1.2-1.6-3.4-3.4-6.6-4.2c0.6-2.2,0-4.6-1.7-6.6c-1.7-1.9-4.1-3-6.2-2.8
	c-0.4-1.4-1.2-2.5-2.2-3.3c-1.2-0.9-2.9-1.2-4.8-1c-0.6-2.2-2.4-4.5-4.9-6.2C121.9,265.5,131,266.7,137,272.7z M104.5,283.4
	c0.6-3.7,2.2-7.2,4.7-10l3.1,3.1c0.5,0.5,0.5,1.3,0,1.8l-1.6,1.6c-1.3,1.3-1.3,3.5,0,4.8c1.3,1.3,3.5,1.3,4.8,0l1.6-1.6
	c0.5-0.5,1.3-0.5,1.8,0l0.9,0.9c0.5,0.5,0.5,1.3,0,1.8l-6.9,6.9c-1.3,1.3-1.3,3.5,0,4.8c1.3,1.3,3.5,1.3,4.8,0l6.9-6.9
	c0.5-0.5,1.3-0.5,1.8,0l9.8,9.8c-2.8,2.5-6.2,4.1-9.9,4.7l-25.2,3.4L104.5,283.4z M128,308.1l-5.7,5.7c-0.3,0.3-0.8,0.3-1.1,0
	l-5.1-5.1l10.5-1.4c0.5-0.1,1-0.2,1.5-0.3C128.3,307.3,128.3,307.8,128,308.1z M124.9,318.7c-1.7,1.7-4.6,1.7-6.3,0l-9.1-9.1l4-0.5
	l6.3,6.3c1.1,1.1,3,1.1,4.1,0l5.7-5.7c0.9-0.9,1.1-2.2,0.6-3.2c1.1-0.4,2.2-0.8,3.3-1.4c1.2,1.7,1.1,4.2-0.5,5.7L124.9,318.7z"/>
<g>
	<path fill="#7EBFCD" d="M309.9,303C309.9,303,309.9,303,309.9,303c8.3-8.3,8.3-21.8,0-30l0,0c-8.3-8.3-21.8-8.3-30,0c-3.3,3.3-5.3,7.4-6,11.9
		l-3.8,27.9l28-3.8C302.5,308.3,306.6,306.2,309.9,303C309.9,303,309.9,303,309.9,303C309.9,303,309.9,303,309.9,303z M308.4,274.4
		L308.4,274.4c7.2,7.2,7.4,18.6,0.8,26.2c-0.6-1.2-0.6-2.6,0.1-3.8c0.8-1.4,1.5-2.8,1.9-4.4c1.6-5.8-0.1-12.1-4.4-16.4
		c-4.3-4.3-10.5-5.9-16.4-4.4c-1.5,0.4-3,1-4.4,1.9c-1.2,0.7-2.7,0.8-3.8,0.1C289.7,267,301.2,267.3,308.4,274.4z M275.1,291.2
		l0.5-3.7c1.1-1,2.9-1,4,0.1c1.1,1.1,1.1,3,0,4.1c-1.1,1.1-3,1.1-4.1,0C275.4,291.6,275.2,291.4,275.1,291.2z M280,307.1
		c1.1-1.1,3-1.1,4.1,0c0.4,0.4,0.7,0.9,0.8,1.5l-5.8,0.8C279.1,308.6,279.4,307.7,280,307.1z M297.7,306.9l-10.6,1.5
		c-0.2-1-0.7-2-1.4-2.7c-2-2-5.2-2-7.1,0c-1.1,1.1-1.6,2.6-1.4,4.1l-4.6,0.6l2.3-16.5c2,1.3,4.7,1.1,6.4-0.6c2-2,2-5.2,0-7.1
		c-1.4-1.4-3.4-1.8-5.2-1.2c0.6-3.7,2.2-7,4.7-9.8c1.9,1.3,4.4,1.4,6.5,0.1c1.2-0.7,2.5-1.3,3.8-1.6c5.1-1.4,10.6,0.1,14.3,3.8
		c3.7,3.7,5.2,9.2,3.8,14.3c-0.4,1.4-0.9,2.6-1.6,3.8c-1.3,2.1-1.2,4.6,0.1,6.5C304.9,304.7,301.4,306.3,297.7,306.9z"/>
	<path fill="#7EBFCD" d="M298.4,278.7c-2-2-5.2-2-7.1,0c-2,2-2,5.2,0,7.1c2,2,5.2,2,7.1,0C300.3,283.9,300.3,280.7,298.4,278.7z M292.8,284.4
		c-1.1-1.1-1.1-3,0-4.1c1.1-1.1,3-1.1,4.1,0c1.1,1.1,1.1,3,0,4.1C295.7,285.5,293.9,285.5,292.8,284.4z"/>
	<path fill="#7EBFCD" d="M300,294.4c-2-2-5.2-2-7.1,0c-2,2-2,5.2,0,7.1s5.2,2,7.1,0C302,299.6,302,296.4,300,294.4z M294.4,300.1
		c-1.1-1.1-1.1-3,0-4.1c1.1-1.1,3-1.1,4.1,0c1.1,1.1,1.1,3,0,4.1C297.4,301.2,295.5,301.2,294.4,300.1z"/>
</g>
<g>
	<path fill="#7EBFCD" d="M399.8,379.8C399.8,379.8,399.8,379.8,399.8,379.8c2.5-7.1,1.1-14.7-3.6-20.4c0,0-0.1-0.1-0.1-0.1
		c-0.2-0.2-0.4-0.4-0.5-0.6c-0.1-0.1-0.1-0.2-0.2-0.2c-0.2-0.2-0.4-0.4-0.6-0.6c0,0-0.1-0.1-0.1-0.1l0,0c0,0-0.1-0.1-0.1-0.1
		c-0.2-0.2-0.4-0.4-0.6-0.6c-0.1-0.1-0.1-0.1-0.2-0.2c-0.2-0.2-0.4-0.4-0.6-0.6c0,0,0,0-0.1-0.1c-5.7-4.6-13.3-6-20.3-3.6
		c0,0-0.1,0-0.1,0c-2.9,1-5.7,2.7-8,5c-3.3,3.3-5.3,7.4-6,11.9l-3.8,27.9l28-3.8c4.5-0.7,8.7-2.7,11.9-6
		C397.1,385.5,398.8,382.7,399.8,379.8z M366.2,359.3c1.3-1.3,2.7-2.3,4.2-3.2c0,1,0.4,1.9,1.1,2.6l0,0c-0.8,0.2-1.7,0.6-2.3,1.3
		c-0.7,0.7-1.1,1.5-1.3,2.3l-0.7-0.7c-0.6-0.6-1.4-0.9-2.2-1C365.4,360.1,365.8,359.7,366.2,359.3z M391,357.4
		C391,357.4,391,357.4,391,357.4c0.3,0.2,0.5,0.4,0.7,0.6c0,0,0.1,0.1,0.1,0.1c0.2,0.2,0.4,0.3,0.5,0.5c0.1,0.1,0.1,0.1,0.2,0.2
		c0.2,0.2,0.3,0.3,0.5,0.5c0,0,0.1,0.1,0.1,0.1c0,0,0.1,0.1,0.1,0.1c0.2,0.2,0.3,0.3,0.5,0.5c0.1,0.1,0.1,0.1,0.2,0.2
		c0.2,0.2,0.3,0.4,0.5,0.6c0,0,0,0,0.1,0.1c4.3,5.2,5.3,12.2,3.2,18.4c-0.2,0.4-0.6,0.8-1,0.9c-0.5,0.1-1.1,0-1.4-0.4l-2.8-2.8
		l-0.2-0.2l-10.9-10.9l0,0l-0.6-0.6l-7.9-7.9c-0.4-0.4-0.5-0.9-0.4-1.4c0.1-0.5,0.4-0.8,0.9-1C379.2,352.7,385.9,353.6,391,357.4z
		 M389.3,382.6c-0.7,0-1.3-0.3-1.8-0.7l0,0l-5.1-5.1l8.8,1.7c0.8,1,0.7,2.4-0.2,3.3C390.6,382.3,389.9,382.6,389.3,382.6z
		 M374.2,361.5l4.9,4.9l-1.3,5.8l-7.1-7.1c-1-1-1-2.6,0-3.6C371.7,360.5,373.2,360.5,374.2,361.5z M380.1,374.2
		c-0.3-0.1-0.5-0.3-0.4-0.6l1.2-5.4l7.7,7.7L380.1,374.2z M363.5,363.1c0.6-0.6,1.6-0.6,2.2,0l20.3,20.3l0,0l3.5,3.5
		c0.6,0.6,0.6,1.6,0,2.2c-2,2-5.3,2-7.3,0l-18.7-18.7C361.5,368.4,361.5,365.1,363.5,363.1z M390.9,385.3l-0.7-0.7
		c0.9-0.2,1.7-0.6,2.3-1.3c0.7-0.7,1.1-1.5,1.3-2.3l0,0c0.7,0.7,1.6,1.1,2.6,1.1c-0.8,1.5-1.9,2.9-3.2,4.2c-0.4,0.4-0.8,0.8-1.3,1.2
		C391.9,386.7,391.5,385.9,390.9,385.3z M360.8,370.2c0.3,0.6,0.7,1.2,1.2,1.7l18.7,18.7c0.5,0.5,1.1,0.9,1.7,1.2l-25,3.4
		L360.8,370.2z"/>
	<path fill="#7EBFCD" d="M389.1,359.5l0.6,1.6c0.1,0.1,0.1,0.3,0.2,0.4c0.3,0.3,0.7,0.4,1.1,0.2c0.5-0.2,0.8-0.8,0.6-1.4l-0.6-1.6
		c-0.2-0.5-0.8-0.8-1.4-0.6C389.1,358.4,388.9,359,389.1,359.5z"/>
	<path fill="#7EBFCD" d="M391.8,364.8c0,0.2,0.1,0.4,0.3,0.6c0.2,0.2,0.6,0.4,0.9,0.3l1.4-0.2c0.6-0.1,1-0.7,0.9-1.2c-0.1-0.6-0.7-1-1.2-0.9
		l-1.4,0.2C392.1,363.7,391.7,364.3,391.8,364.8z"/>
	<path fill="#7EBFCD" d="M382,357.8c0.2,0.2,0.4,0.3,0.7,0.3l1.7,0.1c0.6,0,1.1-0.4,1.1-1c0-0.6-0.4-1.1-1-1.1l-1.7-0.1c-0.6,0-1.1,0.4-1.1,1
		C381.7,357.3,381.8,357.6,382,357.8z"/>
	<path fill="#7EBFCD" d="M393.9,369.3l1,1.6c0,0.1,0.1,0.1,0.1,0.2c0.3,0.3,0.9,0.4,1.3,0.1c0.5-0.3,0.6-1,0.3-1.5l-1-1.6c-0.3-0.5-1-0.6-1.5-0.3
		C393.8,368.2,393.6,368.8,393.9,369.3z"/>
</g>
<g>
	<path fill="#7EBFCD" d="M309.9,133.3c8.3-8.3,8.3-21.8,0-30.1c-8.3-8.3-21.8-8.3-30,0c-0.8,0.8-1.4,1.6-2.1,2.4l0,0l-0.7,1.1
		c-1.7,2.6-2.7,5.4-3.2,8.5l-3.8,27.9l28-3.8c3-0.4,5.9-1.5,8.4-3.2l1.1-0.7l0,0C308.3,134.7,309.1,134,309.9,133.3z M281.3,104.7
		c7.5-7.5,19.6-7.5,27.1,0c7.5,7.5,7.5,19.6,0,27c-0.8,0.8-1.6,1.4-2.4,2.1l-13.6-13.6c-1.3-1.3-3.5-1.3-4.8,0l-4.9,6.6
		c-0.1,0.1-0.1,0.2-0.2,0.3c-1,1-2.6,1-3.5,0c-1-1-1-2.6,0-3.5c0.1-0.1,0.2-0.2,0.2-0.2l6.5-4.8l0.1-0.1c1.3-1.3,1.3-3.5,0-4.8
		l-6.5-6.5C279.9,106.3,280.6,105.5,281.3,104.7z M281.5,119l-0.7,0.5l0-0.4L281.5,119z M281,116.9l0.3-4.7l3,3
		c0.4,0.4,0.5,1,0.2,1.5L281,116.9z M278.6,121.1l-0.8,0.6c-0.2,0.1-0.3,0.3-0.5,0.4c-0.8,0.8-1.3,1.9-1.3,3.1l-1.4,0.1l0.8-5.9
		l3.3-0.2L278.6,121.1z M276.5,127.2c0.2,0.5,0.5,1,0.9,1.4c0.2,0.2,0.5,0.4,0.7,0.6l-0.2,4l-4.4,0.3l0.8-6.1L276.5,127.2z
		 M280.2,129.9c1.3,0.1,2.7-0.3,3.7-1.3c0.1-0.1,0.3-0.3,0.4-0.5l-0.5-0.4l0.5,0.4l-0.4-0.3l0.4,0.3l1-1.4l0.8-0.1l-0.4,6.1
		l-5.8,0.4L280.2,129.9z M289.1,121.7c0.5-0.4,1.3-0.4,1.7,0l2.4,2.4l-4.7,0.3l0.1-2L289.1,121.7z M285.7,134.9l-0.2,4l-5.9,0.8
		l0.3-4.4L285.7,134.9z M287.9,134.7l5.8-0.4l-0.2,3.3l-5.9,0.8L287.9,134.7z M288,132.6l0.4-6.1l5.8-0.4l-0.4,6.1L288,132.6z
		 M296.3,127.1l4.7,4.7l-5,0.3L296.3,127.1z M278.1,109l1.2,1.2l-0.4,6.8l-3.2,0.2l0.2-1.7C276.3,113.2,277,111,278.1,109z
		 M273.2,135.6l4.6-0.3l-0.3,4.6l-5,0.7L273.2,135.6z M297.7,137.2l-2,0.3l0.2-3.2l7.1-0.4l1.2,1.2
		C302.1,136.1,300,136.8,297.7,137.2z"/>
	<path fill="#7EBFCD" d="M306.8,119c0,0.2,0.1,0.4,0.3,0.5c0.2,0.2,0.6,0.4,1,0.3l2.9-0.6c0.6-0.1,0.9-0.7,0.8-1.2c-0.1-0.6-0.7-0.9-1.2-0.8
		l-2.9,0.6C307,117.8,306.7,118.4,306.8,119z"/>
	<path fill="#7EBFCD" d="M301.1,113.6c0,0.3,0.1,0.5,0.3,0.7c0.2,0.2,0.5,0.3,0.8,0.3c0.6,0,1-0.5,1-1.1l-0.1-3c0-0.6-0.5-1-1.1-1
		c-0.6,0-1,0.5-1,1.1L301.1,113.6z"/>
	<path fill="#7EBFCD" d="M292.4,104.1l-3.1,0.2c-0.6,0-1,0.5-1,1.1c0,0.3,0.1,0.5,0.3,0.7c0.2,0.2,0.5,0.3,0.8,0.3l3.1-0.2c0.6,0,1-0.5,1-1.1
		C293.5,104.5,293,104.1,292.4,104.1z"/>
	<path fill="#7EBFCD" d="M291.7,110.4c-0.2,0.4-0.1,0.9,0.2,1.2c0.1,0.1,0.2,0.2,0.3,0.2l2.8,1.2c0.5,0.2,1.2,0,1.4-0.6c0.2-0.5,0-1.2-0.6-1.4
		l-2.8-1.2C292.6,109.6,292,109.8,291.7,110.4z"/>
	<path fill="#7EBFCD" d="M305.8,109.2c0.1,0.1,0.2,0.2,0.3,0.2l3,1.4c0.5,0.2,1.2,0,1.4-0.5c0.2-0.5,0-1.2-0.5-1.4l-3-1.4c-0.5-0.2-1.2,0-1.4,0.5
		C305.4,108.5,305.5,108.9,305.8,109.2z"/>
	<path fill="#7EBFCD" d="M298.7,105.3c0.1,0.1,0.1,0.2,0.2,0.3c0.3,0.3,0.8,0.4,1.2,0.2c0.5-0.3,0.7-0.9,0.4-1.4l-1.5-2.8c-0.3-0.5-0.9-0.7-1.4-0.4
		c-0.5,0.3-0.7,0.9-0.4,1.4L298.7,105.3z"/>
	<path fill="#7EBFCD" d="M302.4,121.1l1.3,3.1c0.1,0.1,0.1,0.2,0.2,0.3c0.3,0.3,0.8,0.4,1.2,0.2c0.5-0.2,0.8-0.9,0.6-1.4l-1.3-3.1
		c-0.2-0.5-0.9-0.8-1.4-0.6S302.2,120.5,302.4,121.1z"/>
</g>
<path fill="#7EBFCD" d="M225,357.8L225,357.8c-8.3-8.3-21.8-8.3-30.1,0c-3.3,3.3-5.3,7.4-6,11.9l-3.8,27.9l28-3.8c4.5-0.7,8.7-2.7,11.9-6
	C233.3,379.6,233.3,366.1,225,357.8z M188.5,388.7l1.2-9l15.4-15.4c1.4-1.4,3.7-1.4,5.2,0c0.7,0.7,0.7,1.9,0,2.6L188.5,388.7z
	 M191.1,390.7c-0.6,0-1.1,0-1.6,0.1l5.5-5.5c-0.1,0.5-0.1,1-0.1,1.6c0,1.7-0.2,2.7-0.6,3.1C193.8,390.5,192.8,390.7,191.1,390.7
	 M190.7,394.8l-3,0.4l0.2-1.6c0.4-0.5,1.1-0.7,3.2-0.7c0.6,0,1.1,0,1.6-0.1L190.7,394.8z M196.9,388.5c0.1-0.5,0.1-1.1,0.1-1.6
	c0-3.3,0.4-3.8,3.8-3.8c0.6,0,1.1,0,1.6-0.1L196.9,388.5z M199.1,381.1l5.5-5.5c-0.1,0.5-0.1,1-0.1,1.6c0,1.7-0.2,2.7-0.6,3.1
	c-0.4,0.4-1.4,0.6-3.1,0.6C200.1,381,199.6,381,199.1,381.1z M206.6,378.9c0.1-0.5,0.1-1.1,0.1-1.6c0-3.3,0.4-3.8,3.8-3.8
	c0.6,0,1.1,0,1.6-0.1L206.6,378.9z M208.8,371.4l5.5-5.5c-0.1,0.5-0.1,1.1-0.1,1.6l0,0c0,1.7-0.2,2.7-0.6,3.1
	c-0.4,0.4-1.4,0.6-3.1,0.6C209.8,371.4,209.3,371.4,208.8,371.4z M216.2,369.2c0.1-0.5,0.1-1.1,0.1-1.6c0-2.3,0.3-3,0.8-3.3
	c0.3,0.1,0.7,0.2,0.9,0.5c0.7,0.7,0.7,1.9,0,2.6L216.2,369.2z M203.2,393.1l-9,1.2l21.8-21.8l0,0c0.7-0.7,1.9-0.7,2.6,0
	c1.4,1.4,1.4,3.7,0,5.2L203.2,393.1z M212.8,391.7l-6.1,0.8l13.4-13.4c2.2-2.2,2.2-5.9,0-8.2c-0.5-0.5-1-0.8-1.7-1l1.1-1.1
	c1.5-1.5,1.5-4.1,0-5.6c-1.5-1.5-4.1-1.5-5.6,0l-1.1,1.1c-0.2-0.6-0.5-1.2-1-1.6c-2.2-2.2-5.9-2.3-8.2,0l-13.4,13.4l0.8-6.1
	c0.6-4.1,2.5-7.8,5.4-10.7c7.5-7.5,19.6-7.5,27,0l0,0c7.5,7.5,7.5,19.6,0,27C220.6,389.3,216.9,391.1,212.8,391.7z"/>
<g>
	<path fill="#7EBFCD" d="M314.8,460c1.6-3.6,3-10.8-2.4-14.1c-0.1-1.1-0.4-3.3-1.1-4.4c-0.1-0.2-0.2-0.3-0.4-0.4c-1.1-0.7-3.3-1-4.4-1.1
		c-3.2-5.4-10.4-4-14-2.4c-5.3,0.3-10.2,2.5-14,6.2c-3.3,3.3-5.3,7.4-6,11.9l-3.8,27.9l28-3.8c4.5-0.7,8.7-2.7,11.9-6
		C312.3,470.2,314.5,465.3,314.8,460z M305,441.6c0.2,0.3,0.5,0.5,0.9,0.6c1.1,0.1,2.9,0.4,3.8,0.7c0.4,0.9,0.6,2.7,0.7,3.8
		c0,0.4,0.2,0.7,0.6,0.9c2.4,1.2,3.5,3.5,3.2,6.8c-0.1,1-0.3,2-0.5,2.8c-0.1-0.2-0.2-0.3-0.4-0.5c-1-1.2-2.1-2.6-2.5-5
		c-0.1-0.6-0.6-1-1.2-0.9c-0.6,0.1-1,0.6-0.9,1.2c0.9,6.1-1.2,8.3-2.3,9.1c-4.6-7-3.5-8.9-1.9-11.5c0.2-0.4,0.2-0.9-0.1-1.3
		c0,0,0,0,0,0c-0.3-0.3-0.8-0.4-1.2-0.2c-3,1.5-4.9,2.5-11.6-1.9c0.8-1.1,3-3.2,9.1-2.3c0.6,0.1,1.1-0.3,1.2-0.9
		c0.1-0.6-0.3-1.1-0.9-1.2c-2.4-0.4-3.8-1.5-5-2.5c-0.2-0.1-0.3-0.2-0.5-0.4C298.2,438.2,302.9,437.6,305,441.6z M296.4,477.9
		l-25.2,3.4l3.4-25.2c0.6-4.1,2.5-7.8,5.4-10.7c3.4-3.4,7.9-5.4,12.6-5.6c0.5,0.1,1.1,0.6,1.8,1.2c0.3,0.2,0.6,0.5,1,0.7
		c-5.3,0.8-6.4,4.4-6.4,4.6c-0.1,0.4,0,0.9,0.4,1.2c6,4.1,9.1,4.6,11.8,3.7c-1,3-0.2,6,3.8,11.9c0,0.1,0.1,0.1,0.1,0.2
		c0.3,0.3,0.7,0.4,1,0.3c0.2-0.1,3.7-1.1,4.6-6.4c0.3,0.4,0.5,0.7,0.7,1c0.6,0.7,1,1.3,1.2,1.8c-0.2,4.8-2.2,9.3-5.6,12.6
		C304.2,475.4,300.5,477.3,296.4,477.9z"/>
	<path fill="#7EBFCD" d="M297.6,455c-0.4-0.4-1.1-0.4-1.5,0l-1.2,1.2c-0.4,0.4-0.4,1.1,0,1.5c0.4,0.4,1.1,0.4,1.5,0l1.2-1.2
		C298,456,298,455.4,297.6,455z"/>
	<path fill="#7EBFCD" d="M291.3,461.2c-0.4-0.4-1.1-0.4-1.5,0l-1.2,1.2c-0.4,0.4-0.4,1.1,0,1.5c0.4,0.4,1.1,0.4,1.5,0l1.2-1.2
		C291.8,462.3,291.8,461.6,291.3,461.2z"/>
	<path fill="#7EBFCD" d="M285.1,467.4c-0.4-0.4-1.1-0.4-1.5,0l-1.2,1.2c-0.4,0.4-0.4,1.1,0,1.5c0.4,0.4,1.1,0.4,1.5,0l1.2-1.2
		C285.5,468.5,285.5,467.8,285.1,467.4z"/>
	<path fill="#7EBFCD" d="M286.8,445.7c-0.4-0.4-1.1-0.4-1.5,0l-1.2,1.2c-0.4,0.4-0.4,1.1,0,1.5c0.4,0.4,1.1,0.4,1.5,0l1.2-1.2
		C287.3,446.8,287.3,446.1,286.8,445.7z"/>
	<path fill="#7EBFCD" d="M280.6,451.9c-0.4-0.4-1.1-0.4-1.5,0l-1.2,1.2c-0.4,0.4-0.4,1.1,0,1.5c0.4,0.4,1.1,0.4,1.5,0l1.2-1.2
		C281,453,281,452.3,280.6,451.9z"/>
	<path fill="#7EBFCD" d="M306.6,465.9c-0.4-0.4-1.1-0.4-1.5,0l-1.2,1.2c-0.4,0.4-0.4,1.1,0,1.5c0.4,0.4,1.1,0.4,1.5,0l1.2-1.2
		C307,467,307,466.4,306.6,465.9z"/>
	<path fill="#7EBFCD" d="M300.4,472.2c-0.4-0.4-1.1-0.4-1.5,0l-1.2,1.2c-0.4,0.4-0.4,1.1,0,1.5c0.4,0.4,1.1,0.4,1.5,0l1.2-1.2
		C300.8,473.3,300.8,472.6,300.4,472.2z"/>
	<path fill="#7EBFCD" d="M278.9,473.7c-0.4-0.4-1.1-0.4-1.5,0l-1.2,1.2c-0.4,0.4-0.4,1.1,0,1.5c0.4,0.4,1.1,0.4,1.5,0l1.2-1.2
		C279.3,474.8,279.3,474.1,278.9,473.7z"/>
	<path fill="#7EBFCD" d="M301.5,461.1c-0.4-0.4-1.1-0.4-1.5,0l-1.2,1.2c-0.4,0.4-0.4,1.1,0,1.5c0.4,0.4,1.1,0.4,1.5,0l1.2-1.2
		C301.9,462.2,301.9,461.5,301.5,461.1z"/>
	<path fill="#7EBFCD" d="M295.2,467.3c-0.4-0.4-1.1-0.4-1.5,0l-1.2,1.2c-0.4,0.4-0.4,1.1,0,1.5c0.4,0.4,1.1,0.4,1.5,0l1.2-1.2
		C295.6,468.4,295.6,467.7,295.2,467.3z"/>
	<path fill="#7EBFCD" d="M289,473.6c-0.4-0.4-1.1-0.4-1.5,0l-1.2,1.2c-0.4,0.4-0.4,1.1,0,1.5c0.4,0.4,1.1,0.4,1.5,0l1.2-1.2
		C289.4,474.6,289.4,474,289,473.6z"/>
	<path fill="#7EBFCD" d="M291.5,451.1c-0.4-0.4-1.1-0.4-1.5,0l-1.2,1.2c-0.4,0.4-0.4,1.1,0,1.5c0.4,0.4,1.1,0.4,1.5,0l1.2-1.2
		C291.9,452.2,291.9,451.5,291.5,451.1z"/>
	<path fill="#7EBFCD" d="M285.2,457.3c-0.4-0.4-1.1-0.4-1.5,0l-1.2,1.2c-0.4,0.4-0.4,1.1,0,1.5c0.4,0.4,1.1,0.4,1.5,0l1.2-1.2
		C285.6,458.4,285.6,457.7,285.2,457.3z"/>
	<path fill="#7EBFCD" d="M279,463.6c-0.4-0.4-1.1-0.4-1.5,0l-1.2,1.2c-0.4,0.4-0.4,1.1,0,1.5c0.4,0.4,1.1,0.4,1.5,0l1.2-1.2
		C279.4,464.6,279.4,464,279,463.6z"/>
</g>
<path fill="#7EBFCD" d="M133,475.1c2-1,3.9-2.4,5.6-4c0,0,0,0,0,0c0,0,0,0,0,0c0,0,0,0,0,0c6.2-6.3,7.7-15.6,4.4-23.3c0-0.1-0.1-0.2-0.1-0.2
	c-0.8-1.8-1.8-3.5-3.1-5.1c0,0,0-0.1-0.1-0.1c-0.4-0.4-0.8-0.9-1.2-1.3l0,0c-1.6-1.6-3.5-2.9-5.4-3.9c-0.1,0-0.1-0.1-0.2-0.1
	c-7.9-3.9-17.7-2.6-24.3,4c0,0,0,0,0,0c0,0,0,0,0,0c0,0,0,0,0,0c-3.3,3.3-5.3,7.4-6,11.9l-3.8,27.9l11.6-1.6l8.2,8.2
	c2.8,2.8,7.4,2.8,10.2,0l3.3-3.3C134.5,481.7,134.8,477.9,133,475.1z M110.1,442.5c0.9-0.2,4.9,1.7,11.1,7.2
	c-0.7,0.4-1.4,0.6-2.3,0.6c-0.6,0-1.1,0.5-1.1,1.1c0,0.3,0.1,0.6,0.3,0.7c0.2,0.2,0.5,0.3,0.7,0.3c1.5,0,2.8-0.4,3.9-1.3
	c0.9,0.8,1.9,1.8,2.9,2.7c0.2,0.2,0.5,0.5,0.7,0.7c-0.7,0.4-1.5,0.7-2.5,0.7c-0.6,0-1.1,0.5-1.1,1.1c0,0.3,0.1,0.6,0.3,0.7
	s0.5,0.3,0.7,0.3c1.5,0,2.9-0.5,3.9-1.3c1.2,1.3,2.3,2.5,3.2,3.6c-0.6,0.4-1.4,0.5-2.2,0.5c-0.6,0-1.1,0.5-1.1,1.1
	c0,0.3,0.1,0.6,0.3,0.8c0.2,0.2,0.5,0.3,0.7,0.3c1.3,0,2.5-0.3,3.5-1c3.5,4.5,4.8,7.3,4.6,8.1c-1.1,0.2-6.9-2.7-15.6-11.4
	C112.7,449.3,109.9,443.6,110.1,442.5z M132.3,439c1.5,0.8,2.9,1.7,4.2,2.9c-3.9,0.4-7.6,2.7-7.6,6.7c0,1.5-0.3,3.1-1,4.3
	c-0.3-0.3-0.6-0.6-0.6-0.6c-0.2-0.2-1.3-1.3-2.9-2.8c1.1-1.5,1.7-3.6,1.7-5.9C125.9,440.4,129.7,439.1,132.3,439z M140.4,447.1
	c-3.4,0.6-6.6,2.8-6.6,6.6c0,1.8-0.4,3.4-1.2,4.6c-1.2-1.4-2.4-2.7-3.3-3.7c1-1.5,1.6-3.5,1.6-5.9c0-3.4,4-4.7,6.6-4.7l0.9,0.1
	C139.2,445,139.9,446,140.4,447.1z M138.8,467.6c-0.8-2.2-2.7-5-4.8-7.6c0.1-0.1,0.2-0.2,0.3-0.4c1.1-1.5,1.7-3.6,1.7-5.9
	c0-3,3.2-4.3,5.4-4.6C143.7,455.2,142.8,462.2,138.8,467.6z M128.6,437.6c-0.6,0.2-1.2,0.5-1.7,0.8c-2,1.3-3.1,3.1-3.1,5.2
	c0,1.7-0.4,3.3-1.1,4.5c-3.2-2.8-7.5-6.3-10.7-7.4C116.8,437.1,123,436,128.6,437.6z M104.6,453.2c0.5-3.3,1.8-6.3,3.8-8.9
	c2,5.6,11.1,14.7,11.6,15.2c0.5,0.5,9.7,9.6,15.2,11.6c-2.6,2-5.6,3.3-8.9,3.8l-25.2,3.4L104.6,453.2z M127.2,485.9
	c-2,2-5.2,2-7.2,0l-7-7l13.7-1.9c1.5-0.2,3-0.6,4.4-1.1c1.5,2,1.4,4.9-0.4,6.7L127.2,485.9z"/>
<g>
	<path fill="#7EBFCD" d="M55.3,387.8c8.3-8.3,8.3-21.8,0-30.1c-8.3-8.3-21.8-8.3-30,0c-0.8,0.8-1.4,1.6-2.1,2.4l0,0l-0.7,1.1
		c-1.7,2.6-2.7,5.4-3.2,8.5l-3.8,27.9l28-3.8c3-0.4,5.9-1.5,8.4-3.2l1.1-0.7l0,0C53.8,389.3,54.6,388.6,55.3,387.8z M26.8,359.3
		c7.5-7.5,19.6-7.5,27.1,0c7.5,7.5,7.5,19.6,0,27c-0.8,0.8-1.6,1.4-2.4,2.1l-13.6-13.6c-1.3-1.3-3.5-1.3-4.8,0l-4.9,6.6
		c-0.1,0.1-0.1,0.2-0.2,0.3c-1,1-2.6,1-3.5,0c-1-1-1-2.6,0-3.5c0.1-0.1,0.2-0.2,0.2-0.2l6.5-4.8l0.1-0.1c1.3-1.3,1.3-3.5,0-4.8
		l-6.5-6.5C25.3,360.9,26,360,26.8,359.3z M26.9,373.5l-0.7,0.5l0-0.4L26.9,373.5z M26.4,371.4l0.3-4.7l3,3c0.4,0.4,0.5,1,0.2,1.5
		L26.4,371.4z M24.1,375.6l-0.8,0.6c-0.2,0.1-0.3,0.3-0.5,0.4c-0.8,0.8-1.3,1.9-1.3,3.1l-1.4,0.1l0.8-5.9l3.3-0.2L24.1,375.6z
		 M21.9,381.8c0.2,0.5,0.5,1,0.9,1.4c0.2,0.2,0.5,0.4,0.7,0.6l-0.2,4l-4.4,0.3l0.8-6.1L21.9,381.8z M25.7,384.5
		c1.3,0.1,2.7-0.3,3.7-1.3c0.1-0.1,0.3-0.3,0.4-0.5l-0.5-0.4l0.5,0.4l-0.4-0.3l0.4,0.3l1-1.4l0.8-0.1l-0.4,6.1l-5.8,0.4L25.7,384.5z
		 M34.6,376.2c0.5-0.4,1.3-0.4,1.7,0l2.4,2.4l-4.7,0.3l0.1-2L34.6,376.2z M31.2,389.4l-0.2,4l-5.9,0.8l0.3-4.4L31.2,389.4z
		 M33.3,389.3l5.8-0.4l-0.2,3.3l-5.9,0.8L33.3,389.3z M33.4,387.2l0.4-6.1l5.8-0.4l-0.4,6.1L33.4,387.2z M41.7,381.7l4.7,4.7l-5,0.3
		L41.7,381.7z M23.6,363.5l1.2,1.2l-0.4,6.8l-3.2,0.2l0.2-1.7C21.7,367.7,22.5,365.6,23.6,363.5z M18.6,390.2l4.6-0.3l-0.3,4.6
		l-5,0.7L18.6,390.2z M43.1,391.7l-2,0.3l0.2-3.2l7.1-0.4l1.2,1.2C47.6,390.7,45.4,391.4,43.1,391.7z"/>
	<path fill="#7EBFCD" d="M52.2,373.5c0,0.2,0.1,0.4,0.3,0.5c0.2,0.2,0.6,0.4,1,0.3l2.9-0.6c0.6-0.1,0.9-0.7,0.8-1.2c-0.1-0.6-0.7-0.9-1.2-0.8
		l-2.9,0.6C52.5,372.4,52.1,373,52.2,373.5z"/>
	<path fill="#7EBFCD" d="M46.5,368.1c0,0.3,0.1,0.5,0.3,0.7c0.2,0.2,0.5,0.3,0.8,0.3c0.6,0,1-0.5,1-1.1l-0.1-3c0-0.6-0.5-1-1.1-1
		c-0.6,0-1,0.5-1,1.1L46.5,368.1z"/>
	<path fill="#7EBFCD" d="M37.8,358.7l-3.1,0.2c-0.6,0-1,0.5-1,1.1c0,0.3,0.1,0.5,0.3,0.7c0.2,0.2,0.5,0.3,0.8,0.3l3.1-0.2c0.6,0,1-0.5,1-1.1
		C38.9,359.1,38.4,358.6,37.8,358.7z"/>
	<path fill="#7EBFCD" d="M37.2,364.9c-0.2,0.4-0.1,0.9,0.2,1.2c0.1,0.1,0.2,0.2,0.3,0.2l2.8,1.2c0.5,0.2,1.2,0,1.4-0.6c0.2-0.5,0-1.2-0.6-1.4
		l-2.8-1.2C38,364.1,37.4,364.4,37.2,364.9z"/>
	<path fill="#7EBFCD" d="M51.2,363.8c0.1,0.1,0.2,0.2,0.3,0.2l3,1.4c0.5,0.2,1.2,0,1.4-0.5c0.2-0.5,0-1.2-0.5-1.4l-3-1.4c-0.5-0.2-1.2,0-1.4,0.5
		C50.8,363,50.9,363.5,51.2,363.8z"/>
	<path fill="#7EBFCD" d="M44.2,359.8c0.1,0.1,0.1,0.2,0.2,0.3c0.3,0.3,0.8,0.4,1.2,0.2c0.5-0.3,0.7-0.9,0.4-1.4l-1.5-2.8c-0.3-0.5-0.9-0.7-1.4-0.4
		c-0.5,0.3-0.7,0.9-0.4,1.4L44.2,359.8z"/>
	<path fill="#7EBFCD" d="M47.9,375.6l1.3,3.1c0.1,0.1,0.1,0.2,0.2,0.3c0.3,0.3,0.8,0.4,1.2,0.2c0.5-0.2,0.8-0.9,0.6-1.4l-1.3-3.1
		c-0.2-0.5-0.9-0.8-1.4-0.6C47.9,374.5,47.6,375.1,47.9,375.6z"/>
</g>
<g>
	<path fill="#7EBFCD" d="M55.3,48.4C55.3,48.4,55.3,48.4,55.3,48.4c8.3-8.3,8.3-21.8,0-30l0,0c-8.3-8.3-21.8-8.3-30,0c-3.3,3.3-5.3,7.4-6,11.9
		l-3.8,27.9l28-3.8C48,53.8,52.1,51.7,55.3,48.4C55.3,48.4,55.3,48.4,55.3,48.4C55.3,48.4,55.3,48.4,55.3,48.4z M53.8,19.9
		L53.8,19.9C61,27,61.3,38.5,54.7,46c-0.6-1.2-0.6-2.6,0.1-3.8c0.8-1.4,1.5-2.8,1.9-4.4c1.6-5.8-0.1-12.1-4.4-16.4
		C48,17.2,41.8,15.5,35.9,17c-1.5,0.4-3,1-4.4,1.9c-1.2,0.7-2.7,0.8-3.8,0.1C35.2,12.4,46.7,12.7,53.8,19.9z M20.6,36.7l0.5-3.7
		c1.1-1,2.9-1,4,0.1c1.1,1.1,1.1,3,0,4.1s-3,1.1-4.1,0C20.8,37,20.7,36.9,20.6,36.7z M25.5,52.6c1.1-1.1,3-1.1,4.1,0
		c0.4,0.4,0.7,0.9,0.8,1.5l-5.8,0.8C24.6,54,24.9,53.2,25.5,52.6z M43.1,52.3l-10.6,1.5c-0.2-1-0.7-2-1.4-2.7c-2-2-5.2-2-7.1,0
		c-1.1,1.1-1.6,2.6-1.4,4.1l-4.6,0.6l2.3-16.5c2,1.3,4.7,1.1,6.4-0.6c2-2,2-5.2,0-7.1c-1.4-1.4-3.4-1.8-5.2-1.2
		c0.6-3.7,2.2-7,4.7-9.8c1.9,1.3,4.4,1.4,6.5,0.1c1.2-0.7,2.5-1.3,3.8-1.6c5.1-1.4,10.6,0.1,14.3,3.8c3.7,3.7,5.2,9.2,3.8,14.3
		c-0.4,1.4-0.9,2.6-1.6,3.8c-1.3,2.1-1.2,4.6,0.1,6.5C50.3,50.1,46.9,51.8,43.1,52.3z"/>
	<path fill="#7EBFCD" d="M43.8,24.2c-2-2-5.2-2-7.1,0c-2,2-2,5.2,0,7.1c2,2,5.2,2,7.1,0C45.8,29.3,45.8,26.1,43.8,24.2z M38.2,29.8
		c-1.1-1.1-1.1-3,0-4.1c1.1-1.1,3-1.1,4.1,0c1.1,1.1,1.1,3,0,4.1C41.2,30.9,39.3,30.9,38.2,29.8z"/>
	<path fill="#7EBFCD" d="M45.5,39.9c-2-2-5.2-2-7.1,0c-2,2-2,5.2,0,7.1c2,2,5.2,2,7.1,0C47.4,45,47.4,41.8,45.5,39.9z M39.8,45.5
		c-1.1-1.1-1.1-3,0-4.1c1.1-1.1,3-1.1,4.1,0c1.1,1.1,1.1,3,0,4.1C42.8,46.6,41,46.6,39.8,45.5z"/>
</g>
<g>
	<path fill="#7EBFCD" d="M145.2,125.3C145.2,125.2,145.3,125.2,145.2,125.3c2.5-7.1,1.1-14.7-3.6-20.4c0,0-0.1-0.1-0.1-0.1
		c-0.2-0.2-0.4-0.4-0.5-0.6c-0.1-0.1-0.1-0.2-0.2-0.2c-0.2-0.2-0.4-0.4-0.6-0.6c0,0-0.1-0.1-0.1-0.1l0,0c0,0-0.1-0.1-0.1-0.1
		c-0.2-0.2-0.4-0.4-0.6-0.6c-0.1-0.1-0.1-0.1-0.2-0.2c-0.2-0.2-0.4-0.4-0.6-0.6c0,0,0,0-0.1-0.1c-5.7-4.6-13.3-6-20.3-3.6
		c0,0-0.1,0-0.1,0c-2.9,1-5.7,2.7-8,5c-3.3,3.3-5.3,7.4-6,11.9l-3.8,27.9l28-3.8c4.5-0.7,8.7-2.7,11.9-6
		C142.5,130.9,144.2,128.2,145.2,125.3z M111.6,104.7c1.3-1.3,2.7-2.3,4.2-3.2c0,1,0.4,1.9,1.1,2.6l0,0c-0.8,0.2-1.7,0.6-2.3,1.3
		c-0.7,0.7-1.1,1.5-1.3,2.3l-0.7-0.7c-0.6-0.6-1.4-0.9-2.2-1C110.9,105.6,111.2,105.1,111.6,104.7z M136.5,102.8
		C136.5,102.8,136.5,102.8,136.5,102.8c0.3,0.2,0.5,0.4,0.7,0.6c0,0,0.1,0.1,0.1,0.1c0.2,0.2,0.4,0.3,0.5,0.5
		c0.1,0.1,0.1,0.1,0.2,0.2c0.2,0.2,0.3,0.3,0.5,0.5c0,0,0.1,0.1,0.1,0.1c0,0,0.1,0.1,0.1,0.1c0.2,0.2,0.3,0.3,0.5,0.5
		c0.1,0.1,0.1,0.1,0.2,0.2c0.2,0.2,0.3,0.4,0.5,0.6c0,0,0,0,0.1,0.1c4.3,5.2,5.3,12.2,3.2,18.4c-0.2,0.4-0.6,0.8-1,0.9
		c-0.5,0.1-1.1,0-1.4-0.4l-2.8-2.8l-0.2-0.2l-10.9-10.9l0,0l-0.6-0.6l-7.9-7.9c-0.4-0.4-0.5-0.9-0.4-1.4c0.1-0.5,0.4-0.8,0.9-1
		C124.7,98.2,131.3,99,136.5,102.8z M134.7,128c-0.7,0-1.3-0.3-1.8-0.7l0,0l-5.1-5.1l8.8,1.7c0.8,1,0.7,2.4-0.2,3.3
		C136,127.8,135.4,128,134.7,128z M119.7,106.9l4.9,4.9l-1.3,5.8l-7.1-7.1c-1-1-1-2.6,0-3.6C117.1,106,118.7,106,119.7,106.9z
		 M125.5,119.6c-0.3-0.1-0.5-0.3-0.4-0.6l1.2-5.4l7.7,7.7L125.5,119.6z M109,108.5c0.6-0.6,1.6-0.6,2.2,0l20.3,20.3l0,0l3.5,3.5
		c0.6,0.6,0.6,1.6,0,2.2c-2,2-5.3,2-7.3,0L109,115.8C107,113.8,107,110.5,109,108.5z M136.4,130.8l-0.7-0.7c0.9-0.2,1.7-0.6,2.3-1.3
		c0.7-0.7,1.1-1.5,1.3-2.3l0,0c0.7,0.7,1.6,1.1,2.6,1.1c-0.8,1.5-1.9,2.9-3.2,4.2c-0.4,0.4-0.8,0.8-1.3,1.2
		C137.3,132.1,137,131.4,136.4,130.8z M106.2,115.6c0.3,0.6,0.7,1.2,1.2,1.7l18.7,18.7c0.5,0.5,1.1,0.9,1.7,1.2l-25,3.4L106.2,115.6
		z"/>
	<path fill="#7EBFCD" d="M134.5,105l0.6,1.6c0.1,0.1,0.1,0.3,0.2,0.4c0.3,0.3,0.7,0.4,1.1,0.2c0.5-0.2,0.8-0.8,0.6-1.4l-0.6-1.6
		c-0.2-0.5-0.8-0.8-1.4-0.6C134.6,103.8,134.3,104.4,134.5,105z"/>
	<path fill="#7EBFCD" d="M137.2,110.3c0,0.2,0.1,0.4,0.3,0.6c0.2,0.2,0.6,0.4,0.9,0.3l1.4-0.2c0.6-0.1,1-0.7,0.9-1.2c-0.1-0.6-0.7-1-1.2-0.9
		l-1.4,0.2C137.5,109.2,137.1,109.7,137.2,110.3z"/>
	<path fill="#7EBFCD" d="M127.5,103.2c0.2,0.2,0.4,0.3,0.7,0.3l1.7,0.1c0.6,0,1.1-0.4,1.1-1c0-0.6-0.4-1.1-1-1.1l-1.7-0.1c-0.6,0-1.1,0.4-1.1,1
		C127.2,102.7,127.3,103,127.5,103.2z"/>
	<path fill="#7EBFCD" d="M139.4,114.8l1,1.6c0,0.1,0.1,0.1,0.1,0.2c0.3,0.3,0.9,0.4,1.3,0.1c0.5-0.3,0.6-1,0.3-1.5l-1-1.6c-0.3-0.5-1-0.6-1.5-0.3
		C139.2,113.6,139.1,114.3,139.4,114.8z"/>
</g>
<g>
	<path fill="#7EBFCD" d="M60.3,205.5c1.6-3.6,3-10.8-2.4-14.1c-0.1-1.1-0.4-3.3-1.1-4.4c-0.1-0.2-0.2-0.3-0.4-0.4c-1.1-0.7-3.3-1-4.4-1.1
		c-3.2-5.4-10.4-4-14-2.4c-5.3,0.3-10.2,2.5-14,6.2c-3.3,3.3-5.3,7.4-6,11.9l-3.8,27.9l28-3.8c4.5-0.7,8.7-2.7,11.9-6
		C57.8,215.7,60,210.7,60.3,205.5z M50.4,187.1c0.2,0.3,0.5,0.5,0.9,0.6c1.1,0.1,2.9,0.4,3.8,0.7c0.4,0.9,0.6,2.7,0.7,3.8
		c0,0.4,0.2,0.7,0.6,0.9c2.4,1.2,3.5,3.5,3.2,6.8c-0.1,1-0.3,2-0.5,2.8c-0.1-0.2-0.2-0.3-0.4-0.5c-1-1.2-2.1-2.6-2.5-5
		c-0.1-0.6-0.6-1-1.2-0.9c-0.6,0.1-1,0.6-0.9,1.2c0.9,6.1-1.2,8.3-2.3,9.1c-4.6-7-3.5-8.9-1.9-11.5c0.2-0.4,0.2-0.9-0.1-1.3
		c0,0,0,0,0,0c-0.3-0.3-0.8-0.4-1.2-0.2c-3,1.5-4.9,2.5-11.6-1.9c0.8-1.1,3-3.2,9.1-2.3c0.6,0.1,1.1-0.3,1.2-0.9
		c0.1-0.6-0.3-1.1-0.9-1.2c-2.4-0.4-3.8-1.5-5-2.5c-0.2-0.1-0.3-0.2-0.5-0.4C43.6,183.6,48.4,183,50.4,187.1z M41.8,223.3l-25.2,3.4
		l3.4-25.2c0.6-4.1,2.5-7.8,5.4-10.7c3.4-3.4,7.9-5.4,12.6-5.6c0.5,0.1,1.1,0.6,1.8,1.2c0.3,0.2,0.6,0.5,1,0.7
		c-5.3,0.8-6.4,4.4-6.4,4.6c-0.1,0.4,0,0.9,0.4,1.2c6,4.1,9.1,4.6,11.8,3.7c-1,3-0.2,6,3.8,11.9c0,0.1,0.1,0.1,0.1,0.2
		c0.3,0.3,0.7,0.4,1,0.3c0.2-0.1,3.7-1.1,4.6-6.4c0.3,0.4,0.5,0.7,0.7,1c0.6,0.7,1,1.3,1.2,1.8c-0.2,4.8-2.2,9.3-5.6,12.6
		C49.6,220.8,45.9,222.7,41.8,223.3z"/>
	<path fill="#7EBFCD" d="M43,200.4c-0.4-0.4-1.1-0.4-1.5,0l-1.2,1.2c-0.4,0.4-0.4,1.1,0,1.5c0.4,0.4,1.1,0.4,1.5,0l1.2-1.2
		C43.4,201.5,43.4,200.8,43,200.4z"/>
	<path fill="#7EBFCD" d="M36.8,206.6c-0.4-0.4-1.1-0.4-1.5,0l-1.2,1.2c-0.4,0.4-0.4,1.1,0,1.5c0.4,0.4,1.1,0.4,1.5,0l1.2-1.2
		C37.2,207.7,37.2,207.1,36.8,206.6z"/>
	<path fill="#7EBFCD" d="M30.5,212.9c-0.4-0.4-1.1-0.4-1.5,0l-1.2,1.2c-0.4,0.4-0.4,1.1,0,1.5c0.4,0.4,1.1,0.4,1.5,0l1.2-1.2
		C31,214,31,213.3,30.5,212.9z"/>
	<path fill="#7EBFCD" d="M32.3,191.1c-0.4-0.4-1.1-0.4-1.5,0l-1.2,1.2c-0.4,0.4-0.4,1.1,0,1.5c0.4,0.4,1.1,0.4,1.5,0l1.2-1.2
		C32.7,192.2,32.7,191.6,32.3,191.1z"/>
	<path fill="#7EBFCD" d="M26,197.4c-0.4-0.4-1.1-0.4-1.5,0l-1.2,1.2c-0.4,0.4-0.4,1.1,0,1.5s1.1,0.4,1.5,0l1.2-1.2C26.5,198.5,26.5,197.8,26,197.4z
		"/>
	<path fill="#7EBFCD" d="M52,211.4c-0.4-0.4-1.1-0.4-1.5,0l-1.2,1.2c-0.4,0.4-0.4,1.1,0,1.5c0.4,0.4,1.1,0.4,1.5,0l1.2-1.2
		C52.4,212.5,52.4,211.8,52,211.4z"/>
	<path fill="#7EBFCD" d="M45.8,217.6c-0.4-0.4-1.1-0.4-1.5,0l-1.2,1.2c-0.4,0.4-0.4,1.1,0,1.5c0.4,0.4,1.1,0.4,1.5,0l1.2-1.2
		C46.2,218.7,46.2,218,45.8,217.6z"/>
	<path fill="#7EBFCD" d="M24.3,219.1c-0.4-0.4-1.1-0.4-1.5,0l-1.2,1.2c-0.4,0.4-0.4,1.1,0,1.5s1.1,0.4,1.5,0l1.2-1.2
		C24.7,220.2,24.7,219.5,24.3,219.1z"/>
	<path fill="#7EBFCD" d="M46.9,206.5c-0.4-0.4-1.1-0.4-1.5,0l-1.2,1.2c-0.4,0.4-0.4,1.1,0,1.5c0.4,0.4,1.1,0.4,1.5,0l1.2-1.2
		C47.3,207.6,47.3,206.9,46.9,206.5z"/>
	<path fill="#7EBFCD" d="M40.7,212.8c-0.4-0.4-1.1-0.4-1.5,0l-1.2,1.2c-0.4,0.4-0.4,1.1,0,1.5c0.4,0.4,1.1,0.4,1.5,0l1.2-1.2
		C41.1,213.8,41.1,213.2,40.7,212.8z"/>
	<path fill="#7EBFCD" d="M34.4,219c-0.4-0.4-1.1-0.4-1.5,0l-1.2,1.2c-0.4,0.4-0.4,1.1,0,1.5s1.1,0.4,1.5,0l1.2-1.2C34.8,220.1,34.8,219.4,34.4,219z
		"/>
	<path fill="#7EBFCD" d="M36.9,196.5c-0.4-0.4-1.1-0.4-1.5,0l-1.2,1.2c-0.4,0.4-0.4,1.1,0,1.5c0.4,0.4,1.1,0.4,1.5,0l1.2-1.2
		C37.3,197.6,37.3,196.9,36.9,196.5z"/>
	<path fill="#7EBFCD" d="M30.7,202.8c-0.4-0.4-1.1-0.4-1.5,0l-1.2,1.2c-0.4,0.4-0.4,1.1,0,1.5c0.4,0.4,1.1,0.4,1.5,0l1.2-1.2
		C31.1,203.8,31.1,203.2,30.7,202.8z"/>
	<path fill="#7EBFCD" d="M24.4,209c-0.4-0.4-1.1-0.4-1.5,0l-1.2,1.2c-0.4,0.4-0.4,1.1,0,1.5s1.1,0.4,1.5,0l1.2-1.2C24.8,210.1,24.8,209.4,24.4,209z
		"/>
</g>
<g>
	<path fill="#7EBFCD" d="M465.1,287.5c1.9,1.9,4.9,2.1,6.6,0.4c1.7-1.7,1.5-4.7-0.4-6.6c-1.9-1.9-4.9-2.1-6.6-0.4
		C463,282.6,463.2,285.6,465.1,287.5z M469.8,282.8c1.1,1.1,1.3,2.7,0.4,3.6c-0.9,0.9-2.5,0.7-3.6-0.4c-1.1-1.1-1.3-2.7-0.4-3.6
		C467.1,281.5,468.7,281.7,469.8,282.8z"/>
	<path fill="#7EBFCD" d="M441.3,300.4l0.1,0.2c0.5,1.4,1.2,2.8,2,4l-1.2,1.2c-1.6-0.9-3.6-0.7-4.9,0.7c-1.6,1.6-1.6,4.2,0,5.7
		c0.7,0.7,1.7,1.1,2.7,1.2c0.2,0.7,0.6,1.4,1.1,1.8c0,0,0,0,0.1,0.1c0.7,0.7,1.6,1.1,2.6,1.1c0.9,0,1.8-0.4,2.5-1
		c1.3-1.3,1.5-3.3,0.7-4.9l1.2-1.2c1.2,0.8,2.6,1.5,4,2l0.2,0.1l15.4-2.1c4.6-0.7,8.7-2.8,12-6c0.9-0.9,1.7-1.9,2.5-3l0.1-0.1l0-0.1
		c0.3-0.4,0.6-0.8,0.8-1.3c0,0,0,0,0,0c4.9-8.4,3.5-19-3.4-25.8c-6.8-6.8-17.5-8.2-25.8-3.4c-0.2,0.1-0.5,0.3-0.7,0.4
		c0,0-0.1,0-0.1,0.1l0,0c0,0,0,0,0,0l-0.1,0.1l0,0c-1.3,0.8-2.4,1.8-3.5,2.8c-3.3,3.3-5.4,7.4-6,12L441.3,300.4z M444.6,311.1
		c0.8,0.8,0.8,2,0,2.7c-0.3,0.3-0.6,0.4-0.9,0.4c-0.4,0-0.8-0.2-1.1-0.5c-0.3-0.3-0.9-1.3-0.5-1.7c0.4-0.4,0.4-1.1,0-1.5
		c0,0,0,0,0,0c-0.4-0.4-1.1-0.4-1.5,0c-0.2,0.2-0.4,0.5-0.5,0.7c-0.5,0-0.9-0.2-1.3-0.6c-0.8-0.8-0.8-2,0-2.7c0.8-0.8,2-0.8,2.7,0
		l0.8,0.7l2.4-2.4c0.3,0.3,0.5,0.6,0.8,0.8c0.3,0.3,0.5,0.5,0.8,0.8l-2.4,2.4L444.6,311.1z M467.3,307.1l-14.9,2
		c-2.1-0.7-3.9-1.9-5.5-3.5c-1.6-1.6-2.7-3.4-3.5-5.5l1.9-13.8l0.2-1.1c0.5-3.2,1.7-6.2,3.6-8.7c0,0.1,0,0.1,0,0.2
		c-0.9,5.9,2.2,13.6,7.7,19.1c5.4,5.4,13.3,8.6,19.2,7.7C473.4,305.4,470.5,306.6,467.3,307.1z M478.1,274.5
		c6.2,6.2,7.4,15.7,3,23.2c-0.2,0.4-0.4,0.7-0.7,1.1l-0.1,0.1l0,0c-1.1,1.3-2.6,2.2-4.6,2.5c-5.3,0.8-12.5-2.1-17.5-7.1
		c-4.9-4.9-7.9-12-7.1-17.2c0.3-2.3,1.3-4,3-5.2l0.1,0l0,0c0,0,0,0,0,0C461.8,267,471.8,268.2,478.1,274.5z"/>
</g>
<g>
	<path fill="#7EBFCD" d="M210.4,32.8c1.9,1.9,4.9,2.1,6.6,0.4c1.7-1.7,1.5-4.7-0.4-6.6c-1.9-1.9-4.9-2.1-6.6-0.4C208.3,27.9,208.5,30.8,210.4,32.8z
		 M215.1,28.1c1.1,1.1,1.3,2.7,0.4,3.6c-0.9,0.9-2.5,0.7-3.6-0.4s-1.3-2.7-0.4-3.6C212.4,26.8,214,27,215.1,28.1z"/>
	<path fill="#7EBFCD" d="M186.5,45.7l0.1,0.2c0.5,1.4,1.2,2.8,2,4l-1.2,1.2c-1.6-0.9-3.6-0.7-4.9,0.7c-1.6,1.6-1.6,4.2,0,5.7
		c0.7,0.7,1.7,1.1,2.7,1.2c0.2,0.7,0.6,1.4,1.1,1.8c0,0,0,0,0.1,0.1c0.7,0.7,1.6,1.1,2.6,1.1c0.9,0,1.8-0.4,2.5-1
		c1.3-1.3,1.5-3.3,0.7-4.9l1.2-1.2c1.2,0.8,2.6,1.5,4,2l0.2,0.1l15.4-2.1c4.6-0.7,8.7-2.8,12-6c0.9-0.9,1.7-1.9,2.5-3l0.1-0.1l0-0.1
		c0.3-0.4,0.6-0.8,0.8-1.3c0,0,0,0,0,0c4.9-8.4,3.5-19-3.4-25.8c-6.8-6.8-17.5-8.2-25.8-3.4c-0.2,0.1-0.5,0.3-0.7,0.4
		c0,0-0.1,0-0.1,0.1l0,0c0,0,0,0,0,0l-0.1,0.1l0,0c-1.3,0.8-2.4,1.8-3.5,2.8c-3.3,3.3-5.4,7.4-6,12L186.5,45.7z M189.8,56.4
		c0.8,0.8,0.8,2,0,2.7c-0.3,0.3-0.6,0.4-0.9,0.4c-0.4,0-0.8-0.2-1.1-0.5c-0.3-0.3-0.9-1.3-0.5-1.7c0.4-0.4,0.4-1.1,0-1.5
		c0,0,0,0,0,0c-0.4-0.4-1.1-0.4-1.5,0c-0.2,0.2-0.4,0.5-0.5,0.7c-0.5,0-0.9-0.2-1.3-0.6c-0.8-0.8-0.8-2,0-2.7c0.8-0.8,2-0.8,2.7,0
		l0.8,0.7l2.4-2.4c0.3,0.3,0.5,0.6,0.8,0.8c0.3,0.3,0.5,0.5,0.8,0.8l-2.4,2.4L189.8,56.4z M212.6,52.4l-14.9,2
		c-2.1-0.7-3.9-1.9-5.5-3.5c-1.6-1.6-2.7-3.4-3.5-5.5l1.9-13.8l0.2-1.1c0.5-3.2,1.7-6.2,3.6-8.7c0,0.1,0,0.1,0,0.2
		c-0.9,5.9,2.2,13.6,7.7,19.1c5.4,5.4,13.3,8.6,19.2,7.7C218.7,50.7,215.8,51.9,212.6,52.4z M223.4,19.8c6.2,6.2,7.4,15.7,3,23.2
		c-0.2,0.4-0.4,0.7-0.7,1.1l-0.1,0.1l0,0c-1.1,1.3-2.6,2.2-4.6,2.5c-5.3,0.8-12.5-2.1-17.5-7.1c-4.9-4.9-7.9-12-7.1-17.2
		c0.3-2.3,1.3-4,3-5.2l0.1,0l0,0c0,0,0,0,0,0C207.1,12.3,217.1,13.5,223.4,19.8z"/>
</g>
</svg>
