<?xml version="1.0" encoding="utf-8"?>
<!-- Generator: Adobe Illustrator 19.2.1, SVG Export Plug-In . SVG Version: 6.00 Build 0)  -->
<svg version="1.1" id="Layer_1" xmlns="http://www.w3.org/2000/svg" xmlns:xlink="http://www.w3.org/1999/xlink" x="0px" y="0px"
	 viewBox="0 0 28 28" style="enable-background:new 0 0 28 28;" xml:space="preserve">
<path fill="#5CABBE" d="M14,4l3.3,6.8l7.5,1.1l-5.4,5.3l1.3,7.4L14,21l-6.7,3.5l1.3-7.4l-5.4-5.3l7.5-1.1L14,4 M14,0.6c-0.3,0-0.7,0.2-0.9,0.5
	L9.3,8.9l-8.5,1.2c-0.8,0.1-1.1,1.1-0.5,1.6l6.2,6L5,26.2c-0.1,0.6,0.4,1.1,0.9,1.1c0.1,0,0.3,0,0.4-0.1l7.6-4l7.6,4
	c0.1,0.1,0.3,0.1,0.4,0.1c0.6,0,1-0.5,0.9-1.1l-1.5-8.5l6.2-6c0.6-0.5,0.3-1.5-0.5-1.6l-8.5-1.2l-3.8-7.7C14.7,0.8,14.3,0.6,14,0.6
	L14,0.6z"/>
</svg>
