<?xml version="1.0" encoding="utf-8"?>
<!-- Generator: Adobe Illustrator 19.2.1, SVG Export Plug-In . SVG Version: 6.00 Build 0)  -->
<svg version="1.1" id="Layer_1" xmlns="http://www.w3.org/2000/svg" xmlns:xlink="http://www.w3.org/1999/xlink" x="0px" y="0px"
	 viewBox="0 0 800 123.6" style="enable-background:new 0 0 800 123.6;" xml:space="preserve">
<g>
	<g>
		<path d="M183.4,37.9c-1.2-1.5-2.8-2.6-4.8-3.3c-2-0.7-3.9-1.1-5.7-1.1c-1.1,0-2.1,0.1-3.2,0.4c-1.1,0.2-2.2,0.6-3.2,1.2
			c-1,0.5-1.8,1.2-2.4,2.1c-0.6,0.9-0.9,1.9-0.9,3.2c0,2,0.7,3.5,2.2,4.5c1.5,1.1,3.4,1.9,5.6,2.7c2.3,0.7,4.7,1.5,7.3,2.2
			c2.6,0.7,5,1.8,7.3,3.2c2.3,1.4,4.1,3.2,5.6,5.5c1.5,2.3,2.2,5.3,2.2,9.2c0,3.6-0.7,6.8-2,9.6c-1.4,2.7-3.2,5-5.5,6.8
			c-2.3,1.8-5,3.1-8.1,4c-3.1,0.9-6.3,1.3-9.7,1.3c-4.3,0-8.2-0.6-11.9-1.9c-3.6-1.3-7-3.4-10.2-6.3l10.3-11.3
			c1.5,2,3.4,3.5,5.6,4.6c2.3,1.1,4.6,1.6,7,1.6c1.2,0,2.4-0.1,3.6-0.4c1.2-0.3,2.3-0.7,3.2-1.3c1-0.6,1.7-1.3,2.3-2.1
			c0.6-0.9,0.9-1.9,0.9-3.1c0-2-0.8-3.5-2.3-4.7c-1.5-1.1-3.4-2.1-5.7-2.9c-2.3-0.8-4.8-1.6-7.4-2.4c-2.7-0.8-5.1-1.9-7.4-3.2
			c-2.3-1.4-4.2-3.2-5.7-5.4c-1.5-2.2-2.3-5.2-2.3-8.8c0-3.5,0.7-6.6,2.1-9.3c1.4-2.7,3.2-4.9,5.6-6.7c2.3-1.8,5-3.1,8-4
			c3-0.9,6.2-1.3,9.4-1.3c3.7,0,7.3,0.5,10.8,1.6c3.5,1.1,6.6,2.8,9.4,5.3L183.4,37.9z"/>
		<path d="M220.7,21.9h24.4c3.4,0,6.6,0.3,9.6,0.9c3,0.6,5.7,1.7,7.9,3.2c2.3,1.5,4,3.6,5.4,6.1c1.3,2.6,2,5.8,2,9.7
			c0,3.8-0.6,7-1.9,9.6c-1.2,2.6-2.9,4.7-5.1,6.2c-2.2,1.5-4.7,2.6-7.7,3.3c-3,0.6-6.2,1-9.6,1h-10.6v25.6h-14.5V21.9z M235.2,49.7
			h9.6c1.3,0,2.5-0.1,3.8-0.4c1.2-0.2,2.3-0.7,3.2-1.3c1-0.6,1.7-1.4,2.3-2.4c0.6-1,0.9-2.3,0.9-3.8c0-1.7-0.4-3-1.2-4
			c-0.8-1-1.8-1.8-3-2.4s-2.5-0.9-4-1.1c-1.5-0.2-2.9-0.2-4.3-0.2h-7.4V49.7z"/>
		<path d="M308.3,21.9h12l28.6,65.7h-16.3l-5.7-13.9h-25.5l-5.5,13.9h-15.9L308.3,21.9z M313.8,41l-8,20.4h16L313.8,41z"/>
		<path d="M371,21.9h25.4c3.3,0,6.5,0.3,9.5,1c3,0.6,5.6,1.7,7.9,3.2c2.3,1.5,4,3.6,5.4,6.1c1.3,2.6,2,5.8,2,9.6
			c0,4.6-1.2,8.6-3.6,11.8c-2.4,3.2-5.9,5.3-10.6,6.2l16.7,27.7h-17.3l-13.7-26.2h-7.1v26.2H371V21.9z M385.5,49.1h8.5
			c1.3,0,2.7,0,4.1-0.1c1.5-0.1,2.8-0.4,3.9-0.8c1.2-0.5,2.1-1.2,2.9-2.2c0.8-1,1.2-2.4,1.2-4.2c0-1.7-0.3-3-1-4
			c-0.7-1-1.5-1.7-2.6-2.3c-1.1-0.5-2.3-0.9-3.6-1.1c-1.4-0.2-2.7-0.3-4-0.3h-9.5V49.1z"/>
		<polygon points="509.6,87.5 489.4,87.5 466.7,61.1 466.7,87.5 452.3,87.5 452.3,21.9 466.7,21.9 466.7,44.8 488.2,21.9 
			507.1,21.9 477.9,52.4 		"/>
		<path d="M573.4,25.6v7.3h-29.5v18.2h27.1v7.3h-27.1v18.2h31.1v7.3h-38.9V25.6H573.4 M577.1,21.9h-44.6v65.7h46.3V72.8h-31.1V62.1
			h27.1V47.4h-27.1V36.6h29.5V21.9L577.1,21.9z"/>
		<path d="M636.9,25.6l25.3,58.2h-8.9l-5.2-12h-29.8l-5.1,12h-8.5l25.2-58.2H636.9 M621.3,65.1h23.9l-12-27.7L621.3,65.1
			 M639.4,21.9h-12L599,87.5h16.6l5.1-12h24.9l5.2,12h17L639.4,21.9L639.4,21.9z M626.9,61.4l6.3-14.6l6.3,14.6H626.9L626.9,61.4z"
			/>
		<path d="M728.3,25.6v6.7h-18.1v51.5h-7.7V32.3h-18.7v-6.7H728.3 M732,21.9h-51.9V36h18.7v51.5h15.1V36H732V21.9L732,21.9z"/>
		<path d="M779.1,23.7c3.7,0,6.9,0.4,9.9,1.3c1.9,0.6,3.7,1.5,5.5,2.7l-5.3,5.8c-1-0.7-2.1-1.3-3.6-1.8c-2.6-0.9-4.9-1-6.7-1
			c-1.3,0-2.9,0.2-4.2,0.5l-0.3,0.1c-1,0.2-2.1,0.5-3.4,1.1c-1.4,0.7-2.6,1.8-3.5,3c-1,1.4-1.5,3-1.5,4.9c0,3,1.2,5.4,3.5,7
			c1.7,1.2,3.9,2.3,6.4,3.1c2.3,0.7,4.8,1.5,7.4,2.3c2.3,0.7,4.5,1.6,6.5,2.8c1.8,1.1,3.4,2.6,4.6,4.5c1.2,1.8,1.7,4.3,1.7,7.5
			c0,3.2-0.6,5.9-1.7,8.2c-1.1,2.3-2.7,4.2-4.7,5.7c-1.7,1.4-3.6,2.2-6.7,3.1c-2.6,0.7-5.8,1.1-9.2,1.1c-4,0-7.7-0.6-10.9-1.7
			c-2.6-0.9-4.8-2-6.7-3.4l6-6.6c1.2,1,2.5,1.9,4.2,2.7c3,1.4,6,1.6,8.3,1.6c1.7,0,3.1-0.1,4.3-0.4l0.1,0c1.2-0.3,2.4-0.6,3.8-1.3
			l0.2-0.1c1-0.6,2.2-1.3,3.2-2.7c0.9-1.4,1.4-3,1.4-4.8c0-2.9-1.2-5.4-3.5-7.1c-1.8-1.3-4-2.5-6.5-3.4c-2.3-0.8-4.9-1.6-7.5-2.5
			c-2.4-0.7-4.7-1.7-6.7-2.9c-1.9-1.1-3.5-2.6-4.7-4.5c-1.2-1.7-1.7-4.1-1.7-7.1c0-3,0.6-5.7,1.7-7.9c1.2-2.3,2.8-4.2,4.7-5.7
			c1.9-1.4,4.1-2.3,7-3.1C773,24.1,775.9,23.7,779.1,23.7 M779.1,20c-3.3,0-6.5,0.4-9.6,1.3c-3.1,0.9-5.8,1.9-8.2,3.8
			c-2.4,1.8-4.3,4.2-5.7,6.9c-1.4,2.7-2.2,6-2.2,9.6c0,3.8,0.8,6.9,2.4,9.2c1.6,2.3,3.6,4.2,5.9,5.6c2.3,1.4,4.9,2.5,7.6,3.3
			c2.6,0.8,5.1,1.6,7.4,2.4c2.2,0.8,4.1,1.7,5.5,2.8c1.3,1,2,2.4,2,4.1c0,1-0.3,1.9-0.8,2.7c-0.5,0.8-1.3,1.2-2.2,1.7
			c-0.9,0.5-1.8,0.7-2.9,1c-1.2,0.3-2.4,0.3-3.5,0.3c-2.3,0-4.5-0.2-6.7-1.3c-2.1-1-3.6-2.3-5.3-3.9l-0.8-0.7L751,81l0.5,0.5
			c3.2,3,6.6,4.7,10.4,6.1c3.7,1.3,7.8,1.9,12.1,1.9c3.4,0,7.1-0.4,10.2-1.3c3.1-0.9,5.6-1.9,8-3.7c2.4-1.8,4.3-4.2,5.7-7
			c1.4-2.8,2.1-6.1,2.1-9.9c0-3.9-0.8-7.2-2.3-9.5c-1.5-2.4-3.5-4.3-5.8-5.7c-2.3-1.4-4.8-2.5-7.4-3.2c-2.6-0.7-5-1.5-7.3-2.2
			c-2.2-0.7-4-1.6-5.4-2.6c-1.3-0.9-1.9-2.2-1.9-4c0-1.1,0.3-2,0.8-2.8c0.6-0.8,1.3-1.4,2.2-1.9c0.9-0.5,1.7-0.6,2.7-0.9
			c1.1-0.2,2.4-0.4,3.4-0.4c1.7,0,3.5,0.1,5.4,0.8c1.9,0.7,2.9,1.5,4.4,2.7l0.9,0.7l10.2-11.2l-0.5-0.5c-2.8-2.5-5.7-4.3-9.3-5.4
			C786.6,20.5,782.9,20,779.1,20L779.1,20z"/>
	</g>
	<g>
		<path d="M46.1,123.6L9.2,75C5,69.5,2,63,0.5,56.3l-0.5-2.2h9.3c7.1,0,10.5,3.8,13.5,7.2c3.1,3.5,5.9,6.6,12.4,6.6h29.6
			c0.7,0,1.4-0.3,1.9-0.8c0.6-0.6,0.9-1.3,0.8-2.1c-0.1-1.4-1.4-2.6-2.9-2.6H47.6c-3.3,0-6.1-2.4-6.5-5.6c-0.2-1.8,0.3-3.7,1.5-5.1
			c1.2-1.4,3-2.2,4.8-2.2h12.9c0.8,0,1.6-0.3,2.1-1c0.5-0.6,0.8-1.4,0.6-2.2C62.9,45,61.6,44,60.2,44H47.4c-1.8,0-3.6-0.8-4.8-2.2
			c-1.2-1.4-1.8-3.2-1.5-5.1c0.4-3.2,3.2-5.6,6.5-5.6h17.3c0.8,0,1.5-0.3,2-0.8c0.5-0.5,0.8-1.3,0.8-2c0-1.5-1.4-2.7-3-2.7H35.3
			c-5.4,0-7.9,2.8-10.7,6c-3.3,3.7-7,7.8-15.1,7.8H0l0.4-2.2C4.8,15.7,24,0,46.1,0c25.7,0,46.6,20.9,46.6,46.6
			c0,10.1-3.2,19.7-9.2,27.8L46.1,123.6z M4.7,57.8c1.5,5.4,4,10.5,7.4,15l34,44.7l34.4-45.4c5.5-7.4,8.4-16.3,8.4-25.6
			c0-23.6-19.2-42.9-42.9-42.9C26.5,3.7,9.4,17,4.6,35.8h4.8c6.5,0,9.2-3,12.4-6.6c3-3.4,6.4-7.2,13.5-7.2h29.5
			c3.5,0,6.5,2.8,6.6,6.2c0,1.8-0.6,3.4-1.8,4.7c-1.2,1.3-2.9,1.9-4.6,1.9H47.6c-1.5,0-2.7,1-2.9,2.4c-0.1,0.8,0.1,1.6,0.7,2.2
			c0.5,0.6,1.3,0.9,2.1,0.9h12.8c3.3,0,6.1,2.4,6.5,5.5c0.3,1.9-0.3,3.7-1.5,5.2c-1.2,1.4-3,2.2-4.9,2.2H47.4
			c-0.8,0-1.5,0.3-2.1,0.9c-0.5,0.6-0.8,1.4-0.7,2.2c0.2,1.3,1.4,2.4,2.9,2.4h17.1c3.5,0,6.4,2.6,6.6,6c0.1,1.8-0.6,3.7-1.9,5
			c-1.2,1.2-2.8,1.9-4.6,1.9H35.3c-8.2,0-11.9-4.1-15.1-7.8c-2.9-3.2-5.3-6-10.8-6H4.7z"/>
	</g>
</g>
</svg>
